<?xml version="1.0" encoding="UTF-8"?> <svg xmlns="http://www.w3.org/2000/svg" width="379" height="293" viewBox="0 0 379 293" fill="none"><rect width="379" height="293" fill="white"></rect><rect width="379" height="293" fill="white"></rect><rect width="379" height="293" fill="#F6FBFE"></rect><path d="M265.163 195.141H252.71V195.235H265.163V195.141Z" fill="#EBEBEB"></path><path d="M220.537 196.16H217.27V196.254H220.537V196.16Z" fill="#EBEBEB"></path><path d="M252.333 191.648H245.117V191.742H252.333V191.648Z" fill="#EBEBEB"></path><path d="M131.966 192.281H115.727V192.375H131.966V192.281Z" fill="#EBEBEB"></path><path d="M137.696 192.281H135.316V192.375H137.696V192.281Z" fill="#EBEBEB"></path><path d="M180.655 193.867H145.432V193.961H180.655V193.867Z" fill="#EBEBEB"></path><path d="M185.637 172.317H113.032C112.462 172.317 111.916 172.091 111.514 171.688C111.111 171.286 110.885 170.74 110.885 170.17V68.1125C110.89 67.5464 111.118 67.0051 111.52 66.6065C111.922 66.208 112.466 65.9844 113.032 65.9844H185.637C185.919 65.9844 186.198 66.0399 186.459 66.1478C186.719 66.2557 186.956 66.4138 187.155 66.6132C187.355 66.8126 187.513 67.0492 187.621 67.3097C187.729 67.5702 187.784 67.8494 187.784 68.1313V170.17C187.784 170.452 187.729 170.731 187.621 170.992C187.513 171.252 187.355 171.489 187.155 171.688C186.956 171.888 186.719 172.046 186.459 172.154C186.198 172.262 185.919 172.317 185.637 172.317ZM113.032 66.0596C112.488 66.0606 111.966 66.2772 111.581 66.662C111.196 67.0468 110.98 67.5684 110.979 68.1125V170.17C110.98 170.714 111.196 171.236 111.581 171.621C111.966 172.006 112.488 172.222 113.032 172.223H185.637C186.181 172.222 186.703 172.006 187.088 171.621C187.473 171.236 187.689 170.714 187.69 170.17V68.1125C187.689 67.5684 187.473 67.0468 187.088 66.662C186.703 66.2772 186.181 66.0606 185.637 66.0596H113.032Z" fill="#EBEBEB"></path><path d="M266.968 172.317H194.363C193.793 172.317 193.247 172.091 192.845 171.688C192.442 171.286 192.216 170.74 192.216 170.17V68.1125C192.221 67.5464 192.449 67.0051 192.851 66.6065C193.253 66.208 193.797 65.9844 194.363 65.9844H266.968C267.538 65.9844 268.084 66.2106 268.487 66.6132C268.889 67.0158 269.115 67.5619 269.115 68.1313V170.17C269.115 170.74 268.889 171.286 268.487 171.688C268.084 172.091 267.538 172.317 266.968 172.317ZM194.363 66.0596C193.819 66.0606 193.297 66.2772 192.912 66.662C192.527 67.0468 192.311 67.5684 192.31 68.1125V170.17C192.311 170.714 192.527 171.236 192.912 171.621C193.297 172.006 193.819 172.222 194.363 172.223H266.968C267.513 172.222 268.034 172.006 268.419 171.621C268.804 171.236 269.02 170.714 269.021 170.17V68.1125C269.02 67.5684 268.804 67.0468 268.419 66.662C268.034 66.2772 267.513 66.0606 266.968 66.0596H194.363Z" fill="#EBEBEB"></path><path d="M284 189.086H96V189.18H284V189.086Z" fill="#EBEBEB"></path><path d="M126.43 83.0234H125.753V135.803H126.43V83.0234Z" fill="#E0E0E0"></path><path d="M168.561 83.0234H167.884V135.803H168.561V83.0234Z" fill="#E0E0E0"></path><path d="M171.213 86.3415H123.104L122.089 83.9727H172.228L171.213 86.3415Z" fill="#EBEBEB"></path><path d="M171.213 89.5954H123.104L122.089 87.2266H172.228L171.213 89.5954Z" fill="#EBEBEB"></path><path d="M171.213 92.8493H123.104L122.089 90.4805H172.228L171.213 92.8493Z" fill="#EBEBEB"></path><path d="M171.213 96.1032H123.104L122.089 93.7344H172.228L171.213 96.1032Z" fill="#EBEBEB"></path><path d="M171.213 99.3532H123.104L122.089 96.9844H172.228L171.213 99.3532Z" fill="#EBEBEB"></path><path d="M171.213 102.607H123.104L122.089 100.238H172.228L171.213 102.607Z" fill="#EBEBEB"></path><path d="M171.213 105.861H123.104L122.089 103.492H172.228L171.213 105.861Z" fill="#EBEBEB"></path><path d="M171.213 109.115H123.104L122.089 106.746H172.228L171.213 109.115Z" fill="#EBEBEB"></path><path d="M171.213 112.361H123.104L122.089 109.992H172.228L171.213 112.361Z" fill="#EBEBEB"></path><path d="M171.213 115.615H123.104L122.089 113.246H172.228L171.213 115.615Z" fill="#EBEBEB"></path><path d="M171.213 118.865H123.104L122.089 116.496H172.228L171.213 118.865Z" fill="#EBEBEB"></path><path d="M171.213 122.119H123.104L122.089 119.75H172.228L171.213 122.119Z" fill="#EBEBEB"></path><path d="M171.213 125.369H123.104L122.089 123H172.228L171.213 125.369Z" fill="#EBEBEB"></path><path d="M171.213 128.623H123.104L122.089 126.254H172.228L171.213 128.623Z" fill="#EBEBEB"></path><path d="M171.213 131.877H123.104L122.089 129.508H172.228L171.213 131.877Z" fill="#EBEBEB"></path><path d="M171.213 135.127H123.104L122.089 132.758H172.228L171.213 135.127Z" fill="#EBEBEB"></path><path d="M172.228 135.129H122.089V136.483H172.228V135.129Z" fill="#E0E0E0"></path><path d="M173.974 81.0117H120.338V84.1701H173.974V81.0117Z" fill="#E0E0E0"></path><path d="M120.885 112.803C120.74 112.803 120.602 112.746 120.5 112.644C120.397 112.542 120.34 112.403 120.34 112.258V93.8343C120.34 93.6897 120.397 93.551 120.5 93.4487C120.602 93.3465 120.74 93.2891 120.885 93.2891C120.957 93.2891 121.028 93.3032 121.094 93.3306C121.16 93.358 121.22 93.3981 121.271 93.4487C121.321 93.4994 121.361 93.5595 121.389 93.6256C121.416 93.6918 121.43 93.7627 121.43 93.8343V112.258C121.43 112.403 121.373 112.542 121.271 112.644C121.168 112.746 121.03 112.803 120.885 112.803Z" fill="#E0E0E0"></path><path d="M121.087 83.5352H120.692V94.4768H121.087V83.5352Z" fill="#E0E0E0"></path><path d="M259.68 92.1406H219.113V188.427H259.68V92.1406Z" fill="#EBEBEB"></path><path d="M257.955 93.8828H220.836V188.428H257.955V93.8828Z" fill="#F0F0F0"></path><path d="M255.339 148.57H223.643V183.196H255.339V148.57Z" fill="#FAFAFA"></path><path d="M255.339 98.1523H223.643V132.778H255.339V98.1523Z" fill="#FAFAFA"></path><path d="M227.633 136.262H224.121V145.414H227.633V136.262Z" fill="#EBEBEB"></path><path d="M227.634 145.41H228.326V136.258H227.634V145.41Z" fill="#E0E0E0"></path><path d="M226.471 139.853C226.471 140.146 226.384 140.432 226.221 140.676C226.058 140.919 225.827 141.109 225.556 141.221C225.285 141.333 224.988 141.363 224.7 141.306C224.413 141.248 224.149 141.107 223.942 140.9C223.735 140.693 223.593 140.429 223.536 140.142C223.479 139.854 223.508 139.556 223.621 139.286C223.733 139.015 223.923 138.784 224.166 138.621C224.41 138.458 224.696 138.371 224.989 138.371C225.382 138.371 225.759 138.527 226.037 138.805C226.315 139.083 226.471 139.46 226.471 139.853Z" fill="#E0E0E0"></path><path d="M226.19 142.414H225.427V144.268H226.19V142.414Z" fill="#E0E0E0"></path><path d="M229.795 139.852C229.795 140.356 225.422 140.762 224.907 140.762C224.666 140.762 224.434 140.666 224.264 140.495C224.093 140.324 223.997 140.093 223.997 139.852C223.997 139.61 224.093 139.379 224.264 139.208C224.434 139.038 224.666 138.942 224.907 138.942C225.422 138.927 229.795 139.352 229.795 139.852Z" fill="#F0F0F0"></path><path d="M238.053 81.4411C237.934 81.3219 237.867 81.1603 237.867 80.9918C237.867 80.8232 237.934 80.6616 238.053 80.5424C238.173 80.4251 238.335 80.3594 238.503 80.3594C238.671 80.3594 238.832 80.4251 238.952 80.5424C239.011 80.6013 239.059 80.6714 239.091 80.7486C239.123 80.8258 239.14 80.9086 239.14 80.9923C239.14 81.076 239.124 81.1589 239.092 81.2362C239.06 81.3135 239.013 81.3838 238.954 81.443C238.895 81.5021 238.824 81.549 238.747 81.581C238.67 81.6129 238.587 81.6292 238.503 81.6291C238.419 81.6289 238.337 81.6122 238.259 81.5799C238.182 81.5477 238.112 81.5005 238.053 81.4411Z" fill="#E0E0E0"></path><path d="M190 205.856C230.263 205.856 262.903 203.951 262.903 201.6C262.903 199.249 230.263 197.344 190 197.344C149.737 197.344 117.098 199.249 117.098 201.6C117.098 203.951 149.737 205.856 190 205.856Z" fill="#F5F5F5"></path><path d="M211.781 155.664V200.6H213.007L214.097 157.961H215.541V155.664H211.781Z" fill="#0B0639"></path><path d="M212.868 200.6H214.038L215.542 155.668H213.996L212.868 200.6Z" fill="#0B0639"></path><g opacity="0.3"><path opacity="0.3" d="M213.095 200.601H214.038L215.437 158.016H214.117L213.095 200.601Z" fill="white"></path></g><path opacity="0.5" d="M211.781 155.664V200.6H213.007L214.097 157.961H215.541V155.664H211.781Z" fill="white"></path><path d="M138.172 200.602H139.341L140.845 155.73H139.3L138.172 200.602Z" fill="#0B0639"></path><path opacity="0.3" d="M138.172 200.602H139.341L140.845 155.73H139.3L138.172 200.602Z" fill="white"></path><path d="M157.015 155.73V200.602H155.778L154.323 157.908H139.399L138.309 200.602H137.087V155.73H157.015Z" fill="#0B0639"></path><path opacity="0.5" d="M157.015 155.73V200.602H155.778L154.323 157.908H139.399L138.309 200.602H137.087V155.73H157.015Z" fill="white"></path><path d="M157.012 200.602H158.177L158.553 155.73H157.012V200.602Z" fill="#0B0639"></path><path opacity="0.3" d="M157.012 200.602H158.177L158.553 155.73H157.012V200.602Z" fill="white"></path><path d="M215.542 155.73V157.911H229.018L230.473 200.602H231.71V155.73H215.542Z" fill="#0B0639"></path><path opacity="0.5" d="M215.542 155.73V157.911H229.018L230.473 200.602H231.71V155.73H215.542Z" fill="white"></path><path d="M231.711 200.602H232.88L233.256 155.73H231.711V200.602Z" fill="#0B0639"></path><g opacity="0.3"><path opacity="0.3" d="M231.709 200.602H232.878L233.254 155.73H231.709V200.602Z" fill="white"></path></g><path d="M157.973 155.711H235.298V152.827H157.973V155.711Z" fill="#0B0639"></path><path opacity="0.8" d="M157.973 155.711H235.298V152.827H157.973V155.711Z" fill="white"></path><path d="M135.04 155.711H159.773V152.827H135.04V155.711Z" fill="#0B0639"></path><path opacity="0.6" d="M135.04 155.711H159.773V152.827H135.04V155.711Z" fill="white"></path><path d="M152.241 152.035V152.433C152.241 152.533 152.281 152.629 152.351 152.699C152.422 152.77 152.517 152.809 152.617 152.809H166.905C166.996 152.809 167.084 152.773 167.148 152.709C167.213 152.645 167.25 152.558 167.251 152.467V152.091C167.251 151.999 167.215 151.911 167.15 151.847C167.085 151.782 166.997 151.745 166.905 151.745H163.352C163.258 151.745 163.165 151.725 163.08 151.686C162.994 151.646 162.918 151.589 162.857 151.517C162.796 151.446 162.751 151.362 162.726 151.272C162.7 151.181 162.694 151.086 162.709 150.993L163.957 143.789H155.836L152.358 151.482C152.283 151.657 152.243 151.845 152.241 152.035Z" fill="#0B0639"></path><path opacity="0.2" d="M167.255 152.086V152.462C167.255 152.507 167.246 152.552 167.229 152.593C167.212 152.635 167.187 152.673 167.155 152.704C167.123 152.736 167.085 152.761 167.044 152.778C167.002 152.796 166.958 152.805 166.913 152.805H152.625C152.525 152.805 152.43 152.765 152.359 152.694C152.289 152.624 152.249 152.528 152.249 152.429V152.03C152.25 151.924 152.263 151.818 152.287 151.714C152.308 151.625 152.337 151.539 152.373 151.455L155.851 143.762H163.973L162.713 150.958C162.708 151.001 162.708 151.044 162.713 151.086C162.716 151.233 162.769 151.374 162.862 151.487C162.956 151.599 163.085 151.677 163.228 151.707C163.273 151.712 163.319 151.712 163.364 151.707H166.921C166.968 151.707 167.015 151.718 167.058 151.738C167.102 151.758 167.14 151.787 167.172 151.823C167.203 151.858 167.227 151.9 167.241 151.946C167.256 151.991 167.26 152.039 167.255 152.086Z" fill="white"></path><path d="M151.904 151.459L155.382 143.766H155.841L152.363 151.459C152.284 151.64 152.243 151.836 152.243 152.034V152.432C152.243 152.532 152.283 152.628 152.353 152.698C152.424 152.769 152.519 152.808 152.619 152.808H152.16C152.06 152.808 151.965 152.769 151.894 152.698C151.824 152.628 151.784 152.532 151.784 152.432V152.034C151.784 151.836 151.825 151.64 151.904 151.459Z" fill="#0B0639"></path><path opacity="0.3" d="M155.839 143.766H163.96L163.641 145.604H155.008L155.839 143.766Z" fill="#0B0639"></path><path d="M177.591 144.568H142.943C142.607 144.568 142.285 144.435 142.047 144.197C141.809 143.96 141.676 143.637 141.676 143.301V118.271C141.676 117.935 141.809 117.613 142.047 117.375C142.285 117.137 142.607 117.004 142.943 117.004H177.591C177.927 117.004 178.25 117.137 178.487 117.375C178.725 117.613 178.858 117.935 178.858 118.271V143.309C178.856 143.644 178.722 143.964 178.485 144.2C178.247 144.436 177.926 144.568 177.591 144.568Z" fill="#0B0639"></path><g opacity="0.2"><path opacity="0.2" d="M177.591 144.568H142.943C142.607 144.568 142.285 144.435 142.047 144.197C141.809 143.96 141.676 143.637 141.676 143.301V118.271C141.676 117.935 141.809 117.613 142.047 117.375C142.285 117.137 142.607 117.004 142.943 117.004H177.591C177.927 117.004 178.25 117.137 178.487 117.375C178.725 117.613 178.858 117.935 178.858 118.271V143.309C178.856 143.644 178.722 143.964 178.485 144.2C178.247 144.436 177.926 144.568 177.591 144.568Z" fill="white"></path></g><path d="M177.567 117.77H142.967C142.587 117.77 142.279 118.078 142.279 118.458V139.149C142.279 139.529 142.587 139.837 142.967 139.837H177.567C177.947 139.837 178.255 139.529 178.255 139.149V118.458C178.255 118.078 177.947 117.77 177.567 117.77Z" fill="#188EF8"></path><path opacity="0.6" d="M177.567 117.77H142.967C142.587 117.77 142.279 118.078 142.279 118.458V139.149C142.279 139.529 142.587 139.837 142.967 139.837H177.567C177.947 139.837 178.255 139.529 178.255 139.149V118.458C178.255 118.078 177.947 117.77 177.567 117.77Z" fill="white"></path><path d="M142.175 117.004H142.927C142.591 117.004 142.269 117.137 142.031 117.375C141.794 117.613 141.66 117.935 141.66 118.271V143.309C141.66 143.645 141.794 143.967 142.031 144.205C142.269 144.442 142.591 144.576 142.927 144.576H142.175C141.839 144.576 141.517 144.442 141.279 144.205C141.042 143.967 140.908 143.645 140.908 143.309V118.271C140.908 117.935 141.042 117.613 141.279 117.375C141.517 117.137 141.839 117.004 142.175 117.004Z" fill="#188EF8"></path><path opacity="0.3" d="M142.175 117.004H142.927C142.591 117.004 142.269 117.137 142.031 117.375C141.794 117.613 141.66 117.935 141.66 118.271V143.309C141.66 143.645 141.794 143.967 142.031 144.205C142.269 144.442 142.591 144.576 142.927 144.576H142.175C141.839 144.576 141.517 144.442 141.279 144.205C141.042 143.967 140.908 143.645 140.908 143.309V118.271C140.908 117.935 141.042 117.613 141.279 117.375C141.517 117.137 141.839 117.004 142.175 117.004Z" fill="white"></path><g opacity="0.2"><path opacity="0.2" d="M157.233 117.77H155.902L149.28 139.833H150.611L157.233 117.77Z" fill="white"></path><path opacity="0.2" d="M147.933 139.833L154.555 117.77H149.554L142.933 139.833H147.933Z" fill="white"></path></g><path opacity="0.2" d="M154.714 152.089V152.465C154.714 152.562 154.751 152.655 154.817 152.725C154.884 152.795 154.975 152.837 155.071 152.841H166.915C167.006 152.841 167.093 152.805 167.157 152.741C167.221 152.677 167.257 152.59 167.257 152.499V152.123C167.257 152.032 167.221 151.945 167.157 151.88C167.093 151.815 167.006 151.778 166.915 151.777H163.358C163.313 151.783 163.268 151.783 163.223 151.777H155.071C154.985 151.78 154.902 151.813 154.837 151.87C154.772 151.927 154.728 152.004 154.714 152.089Z" fill="white"></path><path opacity="0.2" d="M152.276 151.71H163.222C163.078 151.681 162.949 151.604 162.855 151.491C162.761 151.378 162.709 151.236 162.707 151.09H152.555L152.276 151.71Z" fill="#0B0639"></path><path d="M179.388 151.939H180.426C180.45 151.94 180.475 151.937 180.498 151.928C180.521 151.919 180.543 151.906 180.561 151.89C180.579 151.873 180.594 151.853 180.604 151.83C180.614 151.808 180.62 151.784 180.621 151.759V150.759C180.62 150.734 180.614 150.71 180.604 150.687C180.594 150.665 180.579 150.645 180.561 150.628C180.543 150.611 180.521 150.598 180.498 150.59C180.475 150.581 180.45 150.577 180.426 150.578H179.674C179.631 150.577 179.59 150.59 179.555 150.614C179.521 150.638 179.495 150.673 179.482 150.714L179.192 151.71C179.185 151.739 179.185 151.769 179.191 151.797C179.198 151.826 179.211 151.853 179.231 151.875C179.25 151.898 179.274 151.916 179.301 151.927C179.329 151.938 179.358 151.942 179.388 151.939Z" fill="#0B0639"></path><path d="M177.969 151.939H179.003C179.053 151.941 179.102 151.924 179.139 151.89C179.177 151.856 179.199 151.809 179.202 151.759V150.759C179.199 150.709 179.177 150.662 179.139 150.628C179.102 150.594 179.053 150.576 179.003 150.578H178.251C178.209 150.577 178.167 150.59 178.132 150.614C178.098 150.638 178.072 150.673 178.059 150.714L177.766 151.71C177.758 151.739 177.758 151.77 177.765 151.8C177.772 151.829 177.786 151.856 177.806 151.879C177.826 151.902 177.851 151.919 177.88 151.93C177.908 151.94 177.939 151.943 177.969 151.939Z" fill="#0B0639"></path><path d="M176.529 151.939H177.567C177.592 151.94 177.617 151.937 177.64 151.928C177.663 151.919 177.684 151.906 177.702 151.89C177.721 151.873 177.735 151.853 177.746 151.83C177.756 151.808 177.762 151.784 177.763 151.759V150.759C177.762 150.734 177.756 150.71 177.746 150.687C177.735 150.665 177.721 150.645 177.702 150.628C177.684 150.611 177.663 150.598 177.64 150.59C177.617 150.581 177.592 150.577 177.567 150.578H176.815C176.773 150.577 176.731 150.59 176.697 150.614C176.662 150.638 176.636 150.673 176.623 150.714L176.334 151.71C176.327 151.739 176.326 151.769 176.333 151.797C176.34 151.826 176.353 151.853 176.372 151.875C176.391 151.898 176.416 151.916 176.443 151.927C176.47 151.938 176.5 151.942 176.529 151.939Z" fill="#0B0639"></path><path d="M175.097 151.939H176.131C176.181 151.941 176.23 151.924 176.267 151.89C176.305 151.856 176.327 151.809 176.33 151.759V150.759C176.327 150.709 176.305 150.662 176.267 150.628C176.23 150.594 176.181 150.576 176.131 150.578H175.379C175.336 150.577 175.295 150.59 175.26 150.614C175.226 150.638 175.2 150.673 175.187 150.714L174.894 151.71C174.886 151.739 174.886 151.77 174.893 151.8C174.9 151.829 174.914 151.856 174.934 151.879C174.954 151.902 174.979 151.919 175.008 151.93C175.036 151.94 175.067 151.943 175.097 151.939Z" fill="#0B0639"></path><path d="M173.668 151.939H174.706C174.731 151.94 174.755 151.937 174.778 151.928C174.802 151.919 174.823 151.906 174.841 151.89C174.859 151.873 174.874 151.853 174.884 151.83C174.895 151.808 174.9 151.784 174.901 151.759V150.759C174.9 150.734 174.895 150.71 174.884 150.687C174.874 150.665 174.859 150.645 174.841 150.628C174.823 150.611 174.802 150.598 174.778 150.59C174.755 150.581 174.731 150.577 174.706 150.578H173.954C173.912 150.577 173.87 150.59 173.835 150.614C173.801 150.638 173.775 150.673 173.762 150.714L173.473 151.71C173.465 151.739 173.465 151.769 173.472 151.797C173.478 151.826 173.492 151.853 173.511 151.875C173.53 151.898 173.554 151.916 173.582 151.927C173.609 151.938 173.639 151.942 173.668 151.939Z" fill="#0B0639"></path><path d="M172.236 151.939H173.27C173.321 151.941 173.37 151.924 173.407 151.89C173.444 151.856 173.467 151.809 173.47 151.759V150.759C173.467 150.709 173.444 150.662 173.407 150.628C173.37 150.594 173.321 150.576 173.27 150.578H172.518C172.476 150.577 172.435 150.59 172.4 150.614C172.365 150.638 172.34 150.673 172.327 150.714L172.033 151.71C172.026 151.739 172.025 151.77 172.032 151.8C172.039 151.829 172.054 151.856 172.074 151.879C172.094 151.902 172.119 151.919 172.147 151.93C172.176 151.94 172.206 151.943 172.236 151.939Z" fill="#0B0639"></path><path d="M170.824 151.939H171.862C171.887 151.94 171.911 151.937 171.935 151.928C171.958 151.919 171.979 151.906 171.997 151.89C172.015 151.873 172.03 151.853 172.041 151.83C172.051 151.808 172.057 151.784 172.058 151.759V150.759C172.057 150.734 172.051 150.71 172.041 150.687C172.03 150.665 172.015 150.645 171.997 150.628C171.979 150.611 171.958 150.598 171.935 150.59C171.911 150.581 171.887 150.577 171.862 150.578H171.11C171.068 150.577 171.026 150.59 170.992 150.614C170.957 150.638 170.931 150.673 170.918 150.714L170.629 151.71C170.621 151.739 170.621 151.769 170.628 151.797C170.634 151.826 170.648 151.853 170.667 151.875C170.686 151.898 170.711 151.916 170.738 151.927C170.765 151.938 170.795 151.942 170.824 151.939Z" fill="#0B0639"></path><path d="M169.374 151.939H170.408C170.458 151.941 170.507 151.924 170.545 151.89C170.582 151.856 170.604 151.809 170.607 151.759V150.759C170.604 150.709 170.582 150.662 170.545 150.628C170.507 150.594 170.458 150.576 170.408 150.578H169.656C169.614 150.577 169.572 150.59 169.538 150.614C169.503 150.638 169.477 150.673 169.464 150.714L169.171 151.71C169.163 151.739 169.163 151.77 169.17 151.8C169.177 151.829 169.191 151.856 169.211 151.879C169.231 151.902 169.257 151.919 169.285 151.93C169.314 151.94 169.344 151.943 169.374 151.939Z" fill="#0B0639"></path><path d="M167.944 151.939H168.982C169.007 151.94 169.032 151.937 169.055 151.928C169.078 151.919 169.099 151.906 169.117 151.89C169.136 151.873 169.15 151.853 169.161 151.83C169.171 151.808 169.177 151.784 169.178 151.759V150.759C169.177 150.734 169.171 150.71 169.161 150.687C169.15 150.665 169.136 150.645 169.117 150.628C169.099 150.611 169.078 150.598 169.055 150.59C169.032 150.581 169.007 150.577 168.982 150.578H168.23C168.188 150.577 168.146 150.59 168.112 150.614C168.077 150.638 168.052 150.673 168.038 150.714L167.749 151.71C167.742 151.739 167.741 151.769 167.748 151.797C167.755 151.826 167.768 151.853 167.787 151.875C167.806 151.898 167.831 151.916 167.858 151.927C167.885 151.938 167.915 151.942 167.944 151.939Z" fill="#0B0639"></path><path d="M166.514 151.939H167.548C167.598 151.941 167.647 151.924 167.684 151.89C167.722 151.856 167.744 151.809 167.747 151.759V150.759C167.744 150.709 167.722 150.662 167.684 150.628C167.647 150.594 167.598 150.576 167.548 150.578H166.796C166.754 150.578 166.713 150.591 166.68 150.615C166.646 150.639 166.621 150.674 166.608 150.714L166.311 151.714C166.304 151.743 166.304 151.773 166.311 151.802C166.319 151.831 166.333 151.858 166.353 151.88C166.373 151.902 166.398 151.919 166.426 151.93C166.454 151.94 166.484 151.943 166.514 151.939Z" fill="#0B0639"></path><path d="M165.084 151.939H166.122C166.147 151.94 166.171 151.937 166.194 151.928C166.218 151.919 166.239 151.906 166.257 151.89C166.275 151.873 166.29 151.853 166.3 151.83C166.311 151.808 166.316 151.784 166.317 151.759V150.759C166.316 150.734 166.311 150.71 166.3 150.687C166.29 150.665 166.275 150.645 166.257 150.628C166.239 150.611 166.218 150.598 166.194 150.59C166.171 150.581 166.147 150.577 166.122 150.578H165.37C165.328 150.577 165.286 150.59 165.251 150.614C165.217 150.638 165.191 150.673 165.178 150.714L164.889 151.71C164.881 151.739 164.881 151.769 164.888 151.797C164.894 151.826 164.908 151.853 164.927 151.875C164.946 151.898 164.97 151.916 164.998 151.927C165.025 151.938 165.055 151.942 165.084 151.939Z" fill="#0B0639"></path><path d="M163.654 151.939H164.688C164.739 151.941 164.788 151.924 164.825 151.89C164.862 151.856 164.885 151.809 164.888 151.759V150.759C164.885 150.709 164.862 150.662 164.825 150.628C164.788 150.594 164.739 150.576 164.688 150.578H163.936C163.895 150.578 163.854 150.591 163.82 150.615C163.786 150.639 163.761 150.674 163.748 150.714L163.455 151.71C163.448 151.739 163.447 151.769 163.454 151.798C163.461 151.828 163.475 151.855 163.494 151.877C163.514 151.9 163.539 151.917 163.567 151.928C163.595 151.939 163.625 151.943 163.654 151.939Z" fill="#0B0639"></path><path d="M162.221 151.939H163.259C163.283 151.94 163.308 151.937 163.331 151.928C163.354 151.919 163.376 151.906 163.394 151.89C163.412 151.873 163.427 151.853 163.437 151.83C163.447 151.808 163.453 151.784 163.454 151.759V150.759C163.453 150.734 163.447 150.71 163.437 150.687C163.427 150.665 163.412 150.645 163.394 150.628C163.376 150.611 163.354 150.598 163.331 150.59C163.308 150.581 163.283 150.577 163.259 150.578H162.507C162.464 150.577 162.423 150.59 162.388 150.614C162.354 150.638 162.328 150.673 162.315 150.714L162.025 151.71C162.018 151.739 162.018 151.769 162.024 151.797C162.031 151.826 162.044 151.853 162.064 151.875C162.083 151.898 162.107 151.916 162.134 151.927C162.162 151.938 162.191 151.942 162.221 151.939Z" fill="#0B0639"></path><path d="M160.794 151.939H161.828C161.878 151.941 161.927 151.924 161.965 151.89C162.002 151.856 162.024 151.809 162.027 151.759V150.759C162.024 150.709 162.002 150.662 161.965 150.628C161.927 150.594 161.878 150.576 161.828 150.578H161.076C161.034 150.578 160.994 150.591 160.96 150.615C160.926 150.639 160.901 150.674 160.888 150.714L160.595 151.71C160.587 151.739 160.587 151.769 160.594 151.798C160.601 151.828 160.614 151.855 160.634 151.877C160.654 151.9 160.678 151.917 160.706 151.928C160.734 151.939 160.764 151.943 160.794 151.939Z" fill="#0B0639"></path><path d="M159.362 151.939H160.399C160.424 151.94 160.449 151.937 160.472 151.928C160.495 151.919 160.516 151.906 160.535 151.89C160.553 151.873 160.567 151.853 160.578 151.83C160.588 151.808 160.594 151.784 160.595 151.759V150.759C160.594 150.734 160.588 150.71 160.578 150.687C160.567 150.665 160.553 150.645 160.535 150.628C160.516 150.611 160.495 150.598 160.472 150.59C160.449 150.581 160.424 150.577 160.399 150.578H159.647C159.605 150.577 159.563 150.59 159.529 150.614C159.494 150.638 159.469 150.673 159.456 150.714L159.17 151.714C159.163 151.742 159.163 151.771 159.17 151.799C159.177 151.827 159.19 151.853 159.209 151.875C159.228 151.897 159.251 151.914 159.278 151.925C159.304 151.936 159.333 151.941 159.362 151.939Z" fill="#0B0639"></path><path d="M158.317 152.04C158.325 152.258 158.419 152.464 158.578 152.614C158.737 152.763 158.949 152.843 159.167 152.837H180.599C180.817 152.846 181.03 152.769 181.192 152.622C181.353 152.475 181.449 152.27 181.46 152.051C181.459 151.946 181.437 151.842 181.393 151.746C181.35 151.651 181.287 151.565 181.208 151.495C181.045 151.35 180.836 151.269 180.618 151.266H159.167C159.087 151.266 159.008 151.276 158.93 151.296C158.761 151.337 158.61 151.432 158.5 151.566C158.389 151.7 158.325 151.867 158.317 152.04Z" fill="#0B0639"></path><path opacity="0.2" d="M158.317 152.04C158.325 152.258 158.419 152.464 158.578 152.614C158.737 152.763 158.949 152.843 159.167 152.837H180.599C180.817 152.846 181.03 152.769 181.192 152.622C181.353 152.475 181.449 152.27 181.46 152.051C181.459 151.946 181.437 151.842 181.393 151.746C181.35 151.651 181.287 151.565 181.208 151.495C181.045 151.35 180.836 151.269 180.618 151.266H159.167C159.087 151.266 159.008 151.276 158.93 151.296C158.761 151.337 158.61 151.432 158.5 151.566C158.389 151.7 158.325 151.867 158.317 152.04Z" fill="white"></path><path d="M158.317 152.045C158.325 152.263 158.419 152.47 158.578 152.619C158.737 152.768 158.949 152.849 159.167 152.842H166.42C166.588 152.8 166.738 152.703 166.846 152.567C166.954 152.431 167.014 152.264 167.018 152.09C167.022 152.044 167.022 151.998 167.018 151.951C166.984 151.79 166.9 151.644 166.777 151.534C166.72 151.486 166.658 151.443 166.593 151.406L166.492 151.361C166.386 151.32 166.274 151.3 166.161 151.301H158.942C158.771 151.34 158.617 151.434 158.504 151.568C158.392 151.703 158.326 151.87 158.317 152.045Z" fill="#0B0639"></path><path d="M225.619 137.604C225.619 137.604 228.386 172.027 228.409 172.223L230.161 192.745H233.97C233.97 192.745 234.087 191.643 234.324 190.086C236.399 176.441 234.925 171.952 234.925 171.952C234.925 171.952 236.752 145.609 237.392 143.624C237.456 143.417 235.312 128.96 225.619 137.604Z" fill="#0B0639"></path><g opacity="0.2"><path opacity="0.2" d="M225.619 137.604C225.619 137.604 228.386 172.027 228.409 172.223L230.161 192.745H233.97C233.97 192.745 234.087 191.643 234.324 190.086C236.399 176.441 234.925 171.952 234.925 171.952C234.925 171.952 236.752 145.609 237.392 143.624C237.456 143.417 235.312 128.96 225.619 137.604Z" fill="#0B0639"></path></g><path d="M225.644 137.122C226.447 140.094 228.338 142.656 230.941 144.299L233.573 145.965C233.573 145.965 247.271 132.764 235.25 129.869C232.923 129.308 225.644 137.122 225.644 137.122Z" fill="#0B0639"></path><path d="M259.972 189.372L257.581 190.985L255.343 188.112L252.922 185.003V184.999L255.734 183.07L256.118 183.638L258.002 186.443L259.972 189.372Z" fill="#FFC3BD"></path><path opacity="0.2" d="M258.002 186.444L255.343 188.113L252.922 185.004L255.802 183.195L256.118 183.639L258.002 186.444Z" fill="#0B0639"></path><path d="M244.174 150.421C244.23 154.967 245.219 163.179 245.847 167.679C245.847 167.679 249.231 171.714 251.085 174.511L256.932 184.111L253.337 186.442L241.892 174.109C238.613 171.62 239.139 170.116 238.308 167.837C236.274 162.273 234.966 156.275 234.071 150.842C233.657 148.323 231.841 140.137 232.473 137.682C233.323 134.358 234.312 128.636 238.211 131.098C241.478 133.151 244.009 136.517 244.174 150.421Z" fill="#0B0639"></path><path d="M258.267 185.057L253.822 187.858L252.018 186.001L257.015 182.805L258.267 185.057Z" fill="#188EF8"></path><path d="M257.112 191.088L258.92 187.918C258.949 187.861 258.998 187.818 259.057 187.796C259.116 187.775 259.182 187.776 259.24 187.801L261.947 188.865C262.074 188.92 262.174 189.023 262.226 189.151C262.277 189.279 262.276 189.423 262.222 189.55L262.195 189.599C261.545 190.693 261.18 191.185 260.387 192.577C259.902 193.434 258.95 195.393 258.277 196.577C257.604 197.762 256.397 197.156 256.574 196.604C257.356 194.129 257.232 192.742 257.029 191.644C256.99 191.455 257.019 191.258 257.112 191.088Z" fill="#0B0639"></path><path d="M256.601 192.783C256.977 192.651 257.263 191.937 257.376 191.527C257.38 191.512 257.379 191.497 257.374 191.483C257.37 191.469 257.361 191.457 257.349 191.448C257.338 191.439 257.323 191.434 257.308 191.434C257.293 191.434 257.278 191.439 257.267 191.448C257.146 191.512 256.112 192.053 256.075 192.459C256.07 192.506 256.077 192.553 256.096 192.596C256.116 192.639 256.146 192.676 256.184 192.704C256.218 192.728 256.254 192.75 256.293 192.767C256.341 192.79 256.393 192.803 256.445 192.806C256.498 192.809 256.551 192.801 256.601 192.783ZM257.176 191.655C256.988 192.2 256.767 192.561 256.556 192.628C256.508 192.641 256.457 192.642 256.408 192.63C256.36 192.618 256.315 192.594 256.278 192.561C256.26 192.551 256.245 192.536 256.236 192.518C256.228 192.5 256.225 192.479 256.229 192.459C256.248 192.241 256.767 191.884 257.176 191.655Z" fill="#188EF8"></path><path d="M257.344 191.571C257.356 191.564 257.365 191.554 257.371 191.542C257.378 191.53 257.382 191.517 257.382 191.504C257.38 191.491 257.375 191.478 257.367 191.468C257.359 191.457 257.349 191.449 257.337 191.443C257.303 191.421 256.491 190.966 256.047 191.116C255.992 191.135 255.942 191.164 255.9 191.204C255.857 191.244 255.824 191.292 255.803 191.346C255.773 191.399 255.763 191.461 255.773 191.521C255.784 191.581 255.814 191.636 255.859 191.677C255.884 191.696 255.91 191.712 255.938 191.725C256.41 191.844 256.909 191.79 257.344 191.571ZM257.137 191.504C256.761 191.647 256.13 191.707 255.961 191.56C255.934 191.534 255.904 191.496 255.942 191.406C255.956 191.371 255.977 191.34 256.005 191.315C256.032 191.29 256.064 191.271 256.1 191.259C256.454 191.232 256.808 191.314 257.115 191.492L257.137 191.504Z" fill="#188EF8"></path><path d="M218.076 151.088L215.549 150.926C215.549 150.926 213.779 138.195 213.609 137.687C213.376 136.762 211.959 129.663 211.398 127.851L211.669 127.81C211.368 126.877 211.624 125.87 212.605 125.554C213.587 125.238 214.933 125.757 215.237 126.682C215.869 128.562 217.072 135.706 217.253 136.563C217.255 136.583 217.255 136.603 217.253 136.623C217.828 140.349 218.076 151.088 218.076 151.088Z" fill="#FFC3BD"></path><path d="M218.072 151.092C218.072 152.25 217.019 152.848 216.259 152.927H212.251L212.018 152.87C211.995 152.864 211.974 152.852 211.958 152.835C211.941 152.817 211.93 152.796 211.924 152.773C211.919 152.75 211.92 152.726 211.927 152.703C211.934 152.681 211.948 152.66 211.965 152.645L212.687 152.066C213.484 151.423 214.567 151.212 215.545 150.938L218.072 151.092Z" fill="#FFC3BD"></path><path d="M213.158 121.677C209.056 123.651 211.921 131.874 211.921 131.874L216.964 131.407C216.964 131.407 217.464 125.444 216.892 123.583C216.287 121.631 215.121 120.394 213.158 121.677Z" fill="#188EF8"></path><path opacity="0.2" d="M214.678 131.615C214.678 131.615 213.55 125.599 214.655 124.471C214.979 124.229 215.345 124.048 215.735 123.938C217.084 124.52 216.806 126.464 216.806 126.464L216.964 131.401C216.321 131.503 214.678 131.615 214.678 131.615Z" fill="#0B0639"></path><path d="M213.929 126.921C215.245 129.204 218.065 132.26 225.585 136.964L234.857 129.82C231.74 126.094 229.796 123.612 225.991 115.57C225.813 115.178 225.548 114.831 225.216 114.555C224.885 114.28 224.496 114.083 224.077 113.979C223.376 113.816 222.639 113.928 222.017 114.291C221.329 114.694 220.58 115.156 219.851 115.668C218.189 116.765 216.608 117.982 215.121 119.307C214.083 120.266 213.045 121.364 212.305 122.169C212.305 122.169 212.305 122.296 212.365 122.593C212.626 124.117 213.155 125.583 213.929 126.921Z" fill="#188EF8"></path><path opacity="0.2" d="M226.555 116.398C226.679 116.718 226.803 117.041 226.931 117.323C227.547 118.79 228.254 120.216 229.048 121.595C226.04 122.129 222.964 120.467 222.509 119.384C222.219 118.726 225.051 116.838 226.555 116.398Z" fill="#0B0639"></path><path d="M234.538 129.091L235.723 129.659C235.817 129.704 235.798 129.843 235.666 129.937L225.62 137.603C225.526 137.675 225.409 137.686 225.36 137.634L224.548 136.773C224.492 136.716 224.548 136.6 224.635 136.517L234.305 129.151C234.335 129.121 234.373 129.1 234.414 129.09C234.455 129.079 234.498 129.08 234.538 129.091Z" fill="#188EF8"></path><path opacity="0.6" d="M234.538 129.091L235.723 129.659C235.817 129.704 235.798 129.843 235.666 129.937L225.62 137.603C225.526 137.675 225.409 137.686 225.36 137.634L224.548 136.773C224.492 136.716 224.548 136.6 224.635 136.517L234.305 129.151C234.335 129.121 234.373 129.1 234.414 129.09C234.455 129.079 234.498 129.08 234.538 129.091Z" fill="white"></path><path d="M224.632 136.518L234.303 129.152L224.632 136.518Z" fill="#188EF8"></path><path d="M234.02 131.35L234.291 131.136C234.351 131.095 234.37 131.031 234.34 131.001L233.272 129.873C233.242 129.839 233.171 129.846 233.114 129.891L232.844 130.102C232.787 130.147 232.768 130.207 232.798 130.241L233.862 131.35C233.884 131.369 233.912 131.38 233.941 131.38C233.97 131.38 233.999 131.369 234.02 131.35Z" fill="#0B0639"></path><path d="M226.506 137.1L226.776 136.886C226.833 136.845 226.855 136.781 226.821 136.747L225.757 135.642C225.732 135.625 225.703 135.619 225.673 135.622C225.644 135.625 225.616 135.639 225.596 135.66L225.325 135.871C225.269 135.916 225.246 135.98 225.276 136.01L226.344 137.119C226.374 137.153 226.445 137.146 226.506 137.1Z" fill="#0B0639"></path><path d="M215.272 110.699C216.148 112.451 217.994 115.471 219.84 115.67C219.84 115.67 220.916 118.321 218.9 123.22C214.546 122.291 215.11 119.31 215.11 119.31C216.498 117.595 215.486 116.373 214.275 115.418L215.272 110.699Z" fill="#FFC3BD"></path><path d="M219.209 123.785L219.363 123.409C221.431 118.378 220.371 115.46 220.322 115.344L219.269 115.52L219.382 115.851C219.382 115.878 220.288 118.273 218.603 122.619C215.238 121.728 215.434 118.904 215.452 118.807L214.7 119.638C214.7 119.672 214.012 122.668 218.788 123.687L219.209 123.785Z" fill="#188EF8"></path><path opacity="0.6" d="M219.209 123.785L219.363 123.409C221.431 118.378 220.371 115.46 220.322 115.344L219.269 115.52L219.382 115.851C219.382 115.878 220.288 118.273 218.603 122.619C215.238 121.728 215.434 118.904 215.452 118.807L214.7 119.638C214.7 119.672 214.012 122.668 218.788 123.687L219.209 123.785Z" fill="white"></path><path opacity="0.2" d="M215.166 111.211C215.842 112.133 216.313 113.19 216.546 114.309C216.7 115.084 216.249 116.667 215.418 116.565C215.104 116.123 214.723 115.733 214.29 115.407L215.166 111.211Z" fill="#0B0639"></path><path d="M210.037 119.565C206.548 116.666 205.563 112.643 205.525 109.056C205.525 108.379 205.665 106.194 206.341 106.157C211.568 105.856 205.649 111.101 210.037 119.565Z" fill="#0B0639"></path><path d="M214.341 107.388C216.048 109.993 216.826 111.061 216.518 113.28C216.059 116.615 212.487 118.141 210.043 116.096C207.836 114.253 205.414 110.298 207.118 107.485C207.49 106.865 208.014 106.349 208.642 105.988C209.269 105.627 209.978 105.432 210.702 105.422C211.426 105.412 212.14 105.588 212.777 105.932C213.414 106.276 213.952 106.777 214.341 107.388Z" fill="#FFC3BD"></path><path d="M211.218 115.084C211.218 115.084 211.639 114.238 213.395 112.336C213.94 113.159 214.147 114.062 213.259 115.039C212.883 115.577 212.004 115.633 211.327 115.167C211.289 115.142 211.252 115.114 211.218 115.084Z" fill="#0B0639"></path><path d="M213.076 114.112C212.702 114.469 212.482 114.957 212.463 115.473C212.767 115.426 213.044 115.273 213.245 115.041C213.432 114.866 213.582 114.656 213.687 114.423C213.792 114.19 213.85 113.939 213.858 113.684C213.554 113.729 213.277 113.881 213.076 114.112Z" fill="#FF5652"></path><path d="M211.278 114.982C211.376 115.038 211.487 115.067 211.6 115.067C211.713 115.067 211.823 115.038 211.921 114.982C212.438 114.416 212.895 113.799 213.286 113.14C213.356 113.033 213.396 112.908 213.4 112.78C213.404 112.652 213.372 112.525 213.309 112.414C212.551 113.203 211.871 114.063 211.278 114.982Z" fill="white"></path><path d="M209.639 112.504C209.753 113.135 209.78 113.779 209.721 114.418C209.885 114.428 210.048 114.403 210.201 114.344C210.353 114.285 210.491 114.193 210.605 114.076L209.639 112.504Z" fill="#FF5652"></path><path d="M210.594 109.897C210.57 109.904 210.544 109.904 210.519 109.897C210.341 109.84 210.152 109.826 209.968 109.857C209.783 109.887 209.609 109.962 209.459 110.073C209.444 110.086 209.427 110.095 209.408 110.101C209.39 110.106 209.371 110.108 209.352 110.107C209.332 110.105 209.314 110.099 209.297 110.09C209.279 110.082 209.264 110.069 209.252 110.054C209.238 110.041 209.227 110.026 209.219 110.008C209.212 109.991 209.208 109.972 209.208 109.953C209.208 109.934 209.212 109.915 209.219 109.898C209.227 109.88 209.238 109.864 209.252 109.851C209.44 109.709 209.659 109.613 209.891 109.573C210.123 109.532 210.362 109.548 210.587 109.618C210.624 109.631 210.656 109.657 210.675 109.692C210.695 109.727 210.701 109.767 210.692 109.806C210.683 109.827 210.67 109.846 210.653 109.862C210.636 109.877 210.616 109.889 210.594 109.897Z" fill="#0B0639"></path><path d="M207.12 112.522H207.094C207.055 112.523 207.017 112.508 206.987 112.482C206.958 112.455 206.94 112.419 206.936 112.38C206.918 112.143 206.956 111.906 207.049 111.688C207.142 111.47 207.287 111.278 207.47 111.127C207.486 111.116 207.503 111.107 207.522 111.102C207.541 111.097 207.561 111.096 207.58 111.099C207.599 111.102 207.617 111.109 207.634 111.119C207.651 111.129 207.665 111.142 207.677 111.158C207.699 111.19 207.708 111.23 207.703 111.269C207.697 111.308 207.677 111.343 207.647 111.368C207.504 111.488 207.392 111.641 207.32 111.814C207.249 111.987 207.22 112.175 207.237 112.361C207.24 112.397 207.23 112.433 207.208 112.463C207.187 112.493 207.156 112.514 207.12 112.522Z" fill="#0B0639"></path><path d="M210.917 110.932C211.068 111.135 211.094 111.375 210.951 111.48C210.808 111.586 210.575 111.48 210.432 111.289C210.289 111.097 210.255 110.849 210.398 110.744C210.541 110.638 210.763 110.728 210.917 110.932Z" fill="#0B0639"></path><path d="M208.55 112.608C208.701 112.811 208.731 113.052 208.584 113.157C208.438 113.263 208.208 113.157 208.073 112.966C207.938 112.774 207.892 112.522 208.039 112.417C208.186 112.311 208.4 112.417 208.55 112.608Z" fill="#0B0639"></path><path d="M208.109 112.398L207.511 112.639C207.511 112.639 208.048 112.816 208.109 112.398Z" fill="#0B0639"></path><path d="M210.47 110.727L209.876 110.967C209.876 110.967 210.41 111.129 210.47 110.727Z" fill="#0B0639"></path><path d="M215.268 109.109C216.69 109.669 216.52 113.283 216.52 113.283C216.464 113.422 218.069 111.286 217.167 106.282C216.565 102.946 210.805 101.864 206.549 105.86C205.714 106.639 206.214 111.17 206.549 110.35C206.925 109.361 209.482 107.473 211.061 107.067C210.895 106.97 214.441 108.778 215.268 109.109Z" fill="#0B0639"></path><path d="M214.978 106.214C215.213 106.082 215.414 105.896 215.564 105.672C215.714 105.448 215.809 105.192 215.843 104.924C215.876 104.657 215.846 104.385 215.755 104.131C215.665 103.877 215.516 103.648 215.321 103.462C214.913 103.128 214.43 102.897 213.914 102.789C213.4 102.681 212.909 102.484 212.463 102.206C212.042 101.894 211.922 101.503 211.88 100.845C211.74 100.978 211.627 101.139 211.551 101.316C211.474 101.494 211.434 101.685 211.433 101.879C211.057 101.597 210.993 101.187 210.846 100.277C210.704 100.51 210.613 100.77 210.58 101.041C210.547 101.311 210.572 101.585 210.654 101.845C210.376 101.736 210.196 101.537 210.072 100.653C209.609 101.781 209.902 102.77 210.139 102.936C209.825 102.941 209.523 103.057 209.286 103.263C209.05 103.47 208.894 103.753 208.846 104.064C208.809 104.374 208.847 104.689 208.959 104.981C209.07 105.273 209.251 105.534 209.485 105.741C209.961 106.15 210.535 106.428 211.151 106.549C212.387 106.831 213.679 106.749 214.869 106.312C214.869 106.214 214.978 106.214 214.978 106.214Z" fill="#0B0639"></path><path d="M217.019 108.472C217.323 108.992 217.411 109.61 217.264 110.194C217.061 110.968 216.267 110.946 215.76 110.397C215.252 109.848 214.842 108.893 215.324 108.291C215.409 108.187 215.513 108.1 215.632 108.037C215.75 107.973 215.88 107.933 216.013 107.919C216.147 107.906 216.282 107.919 216.411 107.957C216.54 107.996 216.66 108.06 216.764 108.145C216.87 108.236 216.957 108.347 217.019 108.472Z" fill="#FFC3BD"></path><path d="M212.699 122.949L209.432 123.382L209.477 126.262C209.477 126.262 211.703 125.777 212.609 124.604L212.699 122.949Z" fill="#FFC3BD"></path><path d="M207.524 124.665L207.374 126.793L209.476 126.263L209.431 123.383L207.524 124.665Z" fill="#FFC3BD"></path><g opacity="0.2"><path opacity="0.2" d="M209.271 125.973C209.249 125.987 209.23 126.006 209.216 126.028L209.271 125.973Z" fill="#0B0639"></path></g><path d="M226.31 117.448C226.813 119.576 226.704 123.573 226.637 125.163C226.616 125.912 226.323 126.627 225.813 127.175C225.189 127.826 224.136 128.303 222.429 127.585C220.722 126.867 212.555 125.039 212.574 124.615L212.657 122.971C212.657 122.971 217.609 123.129 222.922 123.723C223.159 121.238 222.681 118.083 222.899 117.245C223.264 115.869 225.67 114.752 226.31 117.448Z" fill="#FFC3BD"></path><path d="M223.021 113.964C221.893 114.791 221.754 121.044 221.754 121.044L227.514 121.161C227.514 121.161 227.514 116.991 227.025 115.769C226.266 113.795 224.284 113.035 223.021 113.964Z" fill="#188EF8"></path><path d="M233.691 197.897L230.758 197.619L230.359 191.61L233.946 191.426L233.691 197.897Z" fill="#FFC3BD"></path><path opacity="0.2" d="M230.372 191.5L230.575 194.899L233.82 194.673L234.038 191.395L230.372 191.5Z" fill="#0B0639"></path><path d="M230.165 196.76L233.997 196.5C234.066 196.498 234.134 196.518 234.191 196.556C234.248 196.595 234.292 196.65 234.316 196.714L235.354 199.689C235.38 199.759 235.39 199.834 235.381 199.908C235.373 199.982 235.346 200.053 235.305 200.116C235.263 200.178 235.208 200.229 235.142 200.265C235.077 200.302 235.004 200.322 234.929 200.324C233.583 200.392 232.94 200.358 231.241 200.474C230.203 200.546 227.533 200.832 226.101 200.929C224.668 201.027 224.307 199.628 224.882 199.459C227.439 198.707 228.883 197.816 229.635 197.008C229.702 196.933 229.784 196.873 229.875 196.83C229.966 196.787 230.065 196.763 230.165 196.76Z" fill="#0B0639"></path><path d="M229.75 197.311C229.766 197.307 229.779 197.298 229.789 197.285C229.798 197.272 229.803 197.256 229.803 197.24C229.803 197.224 229.798 197.209 229.79 197.196C229.781 197.184 229.768 197.174 229.754 197.168C229.479 197.074 228.118 196.623 227.795 196.894C227.763 196.92 227.74 196.954 227.727 196.993C227.715 197.031 227.713 197.073 227.723 197.112C227.733 197.183 227.759 197.251 227.8 197.311C227.84 197.37 227.894 197.419 227.956 197.454C228.19 197.567 228.453 197.604 228.708 197.56C229.064 197.515 229.413 197.432 229.75 197.311ZM228.039 196.962C228.529 196.98 229.014 197.074 229.476 197.24C228.806 197.443 228.276 197.477 228.035 197.33C227.991 197.306 227.953 197.272 227.925 197.23C227.897 197.188 227.879 197.14 227.874 197.09C227.87 197.076 227.87 197.062 227.874 197.049C227.878 197.035 227.886 197.023 227.896 197.014C227.938 196.985 227.988 196.968 228.039 196.965V196.962Z" fill="#188EF8"></path><path d="M229.783 197.304C229.789 197.292 229.793 197.279 229.793 197.266C229.793 197.253 229.789 197.24 229.783 197.228C229.783 197.168 229.29 195.826 228.546 195.995C228.35 196.037 228.298 196.142 228.309 196.221C228.309 196.597 229.238 197.195 229.689 197.322H229.719C229.742 197.323 229.764 197.316 229.783 197.304ZM228.655 196.127C229.125 196.078 229.467 196.796 229.603 197.101C229.136 196.916 228.475 196.431 228.475 196.221C228.475 196.179 228.512 196.142 228.595 196.134H228.644L228.655 196.127Z" fill="#188EF8"></path><path d="M234.952 193.654L229.463 193.925L228.854 191.5L235.23 191.086L234.952 193.654Z" fill="#188EF8"></path><path d="M165.216 197.674L162.448 197.042L163.813 190.891L167.502 192.165L165.216 197.674Z" fill="#FFC3BD"></path><path opacity="0.2" d="M168.355 190.028L164.32 188.438L163.44 192.57L166.858 193.645L168.355 190.028Z" fill="#0B0639"></path><path d="M176.694 197.671L173.886 197.276L175.04 190.008L178.823 190.967L176.694 197.671Z" fill="#FFC3BD"></path><path opacity="0.2" d="M179.488 188.768L175.333 187.527L174.687 192.163L178.255 192.795L179.488 188.768Z" fill="#0B0639"></path><path d="M193.427 156.328C193.427 156.328 177.428 158.186 176.71 164.799C175.996 173.421 176.413 170.981 174.454 190.905L179.195 191.168C179.195 191.168 184.02 174.872 183.369 168.398C188.682 168.398 200.846 168.864 202.613 164.07C203.49 161.636 203.916 159.062 203.872 156.475L193.427 156.328Z" fill="#188EF8"></path><g opacity="0.2"><path opacity="0.2" d="M193.427 156.328C193.427 156.328 177.428 158.186 176.71 164.799C175.996 173.421 176.413 170.981 174.454 190.905L179.195 191.168C179.195 191.168 184.02 174.872 183.369 168.398C188.682 168.398 200.846 168.864 202.613 164.07C203.49 161.636 203.916 159.062 203.872 156.475L193.427 156.328Z" fill="#0B0639"></path></g><path d="M179.311 191.976L173.886 191.047L174.074 188.438L180.278 189.712L179.311 191.976Z" fill="#0B0639"></path><path d="M173.957 195.882L177.123 196.506C177.181 196.52 177.231 196.556 177.264 196.605C177.298 196.654 177.312 196.714 177.303 196.773L177.04 199.781C177.036 199.852 177.017 199.921 176.986 199.985C176.954 200.048 176.91 200.105 176.856 200.151C176.802 200.197 176.739 200.231 176.671 200.253C176.603 200.274 176.532 200.281 176.461 200.274C175.363 200.037 174.844 199.856 173.453 199.582C172.596 199.413 170.637 198.999 169.445 198.867C168.253 198.736 168.396 197.341 168.911 197.269C171.227 196.961 172.543 196.589 173.423 196.006C173.499 195.95 173.586 195.91 173.677 195.889C173.769 195.868 173.864 195.865 173.957 195.882Z" fill="#0B0639"></path><path d="M172.53 196.421C172.779 196.455 173.031 196.463 173.282 196.444C173.295 196.444 173.307 196.441 173.317 196.433C173.328 196.426 173.335 196.415 173.338 196.403C173.344 196.391 173.347 196.379 173.347 196.367C173.347 196.354 173.344 196.342 173.338 196.331C173.259 196.252 172.549 195.579 172.184 195.654C172.142 195.661 172.102 195.68 172.07 195.707C172.037 195.735 172.013 195.772 172 195.812C171.97 195.871 171.957 195.937 171.961 196.003C171.965 196.069 171.986 196.133 172.022 196.188C172.155 196.328 172.337 196.412 172.53 196.421ZM173.135 196.32C172.613 196.32 172.244 196.26 172.135 196.105C172.113 196.069 172.101 196.028 172.101 195.985C172.101 195.943 172.113 195.901 172.135 195.865C172.141 195.845 172.152 195.826 172.167 195.812C172.183 195.797 172.201 195.787 172.222 195.782C172.413 195.741 172.842 196.057 173.135 196.32Z" fill="#188EF8"></path><path d="M173.289 196.454H173.319C173.329 196.45 173.339 196.444 173.347 196.435C173.355 196.427 173.36 196.416 173.364 196.405C173.364 196.372 173.571 195.571 173.33 195.251C173.301 195.208 173.261 195.173 173.216 195.149C173.17 195.125 173.119 195.112 173.067 195.112C173.01 195.104 172.953 195.115 172.904 195.144C172.855 195.172 172.817 195.217 172.796 195.27C172.679 195.567 173.003 196.225 173.255 196.439C173.259 196.444 173.264 196.448 173.27 196.451C173.276 196.453 173.282 196.455 173.289 196.454ZM173.093 195.247C173.12 195.251 173.145 195.261 173.168 195.275C173.19 195.289 173.21 195.308 173.225 195.33C173.333 195.627 173.345 195.951 173.258 196.255C173.03 195.998 172.908 195.663 172.92 195.319C172.92 195.281 172.961 195.24 173.059 195.244L173.093 195.247Z" fill="#188EF8"></path><path d="M187.819 156.328C187.695 156.328 166.688 158.49 166.661 165.615C165.853 170.879 163.251 190.905 163.251 190.905L167.692 192.356C167.692 192.356 174.632 178.32 174.523 169.135C180.303 167.477 195.252 170.263 197.02 165.472C198.467 161.555 197.685 156.328 197.685 156.328H187.819Z" fill="#188EF8"></path><path d="M167.95 192.872L162.693 191.146L163.141 188.867L169.01 190.868L167.95 192.872Z" fill="#0B0639"></path><path d="M162.633 195.536L165.807 196.197C165.866 196.217 165.916 196.256 165.949 196.309C165.981 196.363 165.994 196.426 165.983 196.487L165.735 199.781C165.69 200.157 165.434 200.382 165.16 200.326C164.062 200.074 163.543 199.879 162.152 199.574C161.295 199.397 158.96 198.822 157.783 198.525C156.606 198.228 156.869 196.716 157.407 196.709C159.734 196.675 161.242 196.291 162.137 195.645C162.208 195.593 162.288 195.557 162.374 195.538C162.459 195.519 162.547 195.519 162.633 195.536Z" fill="#0B0639"></path><path d="M161.326 196.245C161.547 196.125 161.754 195.983 161.946 195.82C161.956 195.812 161.963 195.8 161.967 195.788C161.971 195.775 161.972 195.762 161.969 195.749C161.965 195.737 161.957 195.726 161.947 195.718C161.937 195.71 161.925 195.705 161.912 195.704C161.803 195.685 160.833 195.561 160.581 195.839C160.554 195.871 160.535 195.91 160.526 195.951C160.517 195.992 160.518 196.035 160.529 196.076C160.539 196.142 160.567 196.204 160.609 196.255C160.652 196.307 160.707 196.346 160.769 196.369C160.964 196.399 161.162 196.355 161.326 196.245ZM161.751 195.805C161.341 196.129 160.999 196.283 160.822 196.227C160.782 196.21 160.748 196.183 160.722 196.149C160.696 196.114 160.68 196.074 160.675 196.031C160.669 196.011 160.668 195.99 160.673 195.969C160.678 195.949 160.688 195.93 160.702 195.914C160.833 195.783 161.36 195.772 161.751 195.805Z" fill="#188EF8"></path><path d="M161.95 195.822L161.976 195.799C161.982 195.79 161.985 195.78 161.985 195.769C161.985 195.759 161.982 195.748 161.976 195.739C161.976 195.713 161.645 194.942 161.265 194.825C161.216 194.809 161.164 194.805 161.113 194.812C161.062 194.82 161.014 194.84 160.972 194.871C160.922 194.898 160.882 194.941 160.859 194.994C160.837 195.046 160.833 195.105 160.848 195.16C160.927 195.468 161.577 195.807 161.912 195.829L161.95 195.822ZM161.074 194.953C161.098 194.942 161.125 194.937 161.153 194.937C161.18 194.937 161.207 194.942 161.232 194.953C161.496 195.128 161.699 195.382 161.811 195.679C161.473 195.607 161.176 195.41 160.98 195.126C160.957 195.096 160.98 195.036 161.047 194.983L161.074 194.953Z" fill="#188EF8"></path><path d="M198.696 136.316C199.393 139.693 199.666 143.144 199.508 146.589C199.484 147.192 199.28 147.774 198.921 148.26C198.562 148.745 198.066 149.111 197.496 149.311C193.477 150.691 183.065 151.214 179.696 150.789L181.061 149.349C181.061 149.349 195.349 146.559 195.007 145.442C195.007 145.442 194.33 138.298 193.879 137.253L198.696 136.316Z" fill="#FFC3BD"></path><path d="M181.354 149.38L178.933 147.797L176.425 149.496C176.425 149.496 178.335 151.14 180.136 150.718L181.354 149.38Z" fill="#FFC3BD"></path><path d="M176.722 148.35L175.402 149.369C175.379 149.387 175.363 149.411 175.354 149.439C175.346 149.466 175.345 149.496 175.353 149.523C175.361 149.551 175.377 149.576 175.399 149.594C175.421 149.613 175.448 149.625 175.477 149.628L177.034 149.775L178.914 147.797L176.722 148.35Z" fill="#FFC3BD"></path><path d="M187.743 134.396C188.027 134.461 188.294 134.583 188.529 134.753C188.765 134.923 188.964 135.139 189.116 135.387C189.267 135.636 189.367 135.912 189.41 136.199C189.454 136.487 189.439 136.78 189.368 137.062C189.24 137.573 185.16 147.108 184.961 147.428C183.615 150.722 181.231 150.504 177.971 150.616C175.384 150.586 173.459 150.804 170.925 150.24L171.545 148.887C173.331 148.812 177.118 147.499 179.34 146.875C179.762 146.775 180.158 146.585 180.5 146.318C180.842 146.05 181.122 145.712 181.321 145.326C182.37 143.07 184.788 137.321 185.134 135.964C185.276 135.412 185.629 134.937 186.116 134.641C186.604 134.345 187.188 134.252 187.743 134.381V134.396Z" fill="#FFC3BD"></path><path d="M171.667 148.902L169.591 147.992L167.851 150.015C167.851 150.015 170.637 150.902 171.122 150.053L171.667 148.902Z" fill="#FFC3BD"></path><path d="M167.063 149.692L166.552 150.173C166.523 150.202 166.505 150.24 166.501 150.28C166.497 150.321 166.506 150.362 166.528 150.396C166.55 150.431 166.583 150.457 166.621 150.47C166.66 150.483 166.701 150.483 166.74 150.47L167.868 150.015L169.609 147.992L167.774 149.15C167.52 149.307 167.282 149.489 167.063 149.692Z" fill="#FFC3BD"></path><path d="M189.938 122.684L192.107 124.033L195.326 125.793C195.335 126.608 195.402 127.421 195.525 128.226C195.784 129.249 196.149 130.072 197.954 130.26C197.954 130.26 200.304 131.922 196.141 132.554C191.979 133.185 190.742 131.313 190.742 131.313C192.111 129.531 190.799 124.958 189.938 122.684Z" fill="#FFC3BD"></path><path d="M197.455 118.29C197.53 118.538 197.722 118.711 197.887 118.666C198.053 118.621 198.128 118.384 198.053 118.136C197.977 117.888 197.782 117.719 197.616 117.76C197.451 117.801 197.379 118.042 197.455 118.29Z" fill="#0B0639"></path><path d="M196.314 117.724C196.339 117.72 196.363 117.709 196.382 117.692C196.402 117.676 196.416 117.654 196.423 117.63C196.492 117.446 196.601 117.281 196.743 117.146C196.885 117.011 197.056 116.91 197.243 116.851C197.263 116.847 197.281 116.839 197.298 116.827C197.314 116.815 197.328 116.801 197.339 116.783C197.35 116.766 197.358 116.747 197.361 116.727C197.364 116.707 197.364 116.687 197.359 116.667C197.355 116.647 197.347 116.629 197.335 116.612C197.323 116.596 197.309 116.582 197.291 116.571C197.274 116.56 197.255 116.553 197.235 116.549C197.215 116.546 197.195 116.546 197.175 116.551C196.939 116.621 196.722 116.745 196.542 116.913C196.362 117.082 196.223 117.29 196.137 117.521C196.124 117.559 196.125 117.601 196.141 117.638C196.157 117.675 196.187 117.704 196.224 117.72C196.253 117.729 196.284 117.73 196.314 117.724Z" fill="#0B0639"></path><path d="M197.632 118.547C198.046 119.16 198.539 119.717 199.098 120.201C198.971 120.336 198.815 120.442 198.642 120.51C198.469 120.578 198.284 120.608 198.098 120.596L197.632 118.547Z" fill="#ED847E"></path><path d="M188.775 119.783C189.877 122.791 190.377 124.645 192.411 125.799C193.291 126.32 194.332 126.499 195.336 126.303C195.925 126.186 196.482 125.946 196.972 125.6C197.552 125.181 198.015 124.621 198.319 123.973C198.622 123.325 198.755 122.61 198.705 121.896C198.555 118.948 196.772 114.489 193.388 114.057C192.652 113.939 191.897 114.019 191.201 114.287C190.505 114.555 189.892 115.003 189.425 115.584C188.958 116.165 188.653 116.86 188.54 117.598C188.428 118.335 188.513 119.089 188.786 119.783H188.775Z" fill="#FFC3BD"></path><path opacity="0.2" d="M195.336 126.293C195.925 126.176 196.482 125.936 196.972 125.59C196.889 125.62 195.844 126 195.299 125.721L195.336 126.293Z" fill="#0B0639"></path><path d="M187.321 122.291C188.405 123.894 189.686 125.355 191.133 126.641C192.193 126.322 193.118 126.141 194.201 125.889C194.622 124.671 194.713 120.855 195.115 120.204C195.517 119.554 196.337 118.7 196.69 118.031C196.915 117.558 197.012 117.035 196.972 116.514C196.933 115.992 196.758 115.49 196.465 115.057C195.853 114.198 194.933 113.609 193.897 113.414C193.005 113.236 192.085 113.268 191.208 113.509C190.332 113.749 189.523 114.19 188.847 114.797C188.26 115.271 187.86 115.937 187.719 116.677C186.245 117.666 185.817 120.009 187.321 122.291Z" fill="#0B0639"></path><path d="M187.545 115.133C187.479 115.648 187.521 116.172 187.669 116.671C187.488 116.616 187.328 116.507 187.21 116.36C187.092 116.212 187.021 116.032 187.008 115.843C186.993 115.467 187.199 115.283 187.545 115.133Z" fill="#0B0639"></path><path d="M194.137 120.453C194.482 121.178 195.05 121.774 195.758 122.153C196.641 122.593 197.017 121.777 196.717 120.769C196.438 119.874 195.66 118.558 194.784 118.543C193.908 118.528 193.694 119.524 194.137 120.453Z" fill="#FFC3BD"></path><path d="M202.704 131.198C202.422 130.446 201.016 129.555 199.696 129.694H198.82C198.052 129.706 197.287 129.775 196.53 129.901C194.38 130.137 192.246 130.496 190.138 130.976C189.168 131.232 188.232 131.555 187.506 131.834C186.754 131.612 187.434 138.173 187.577 146.238C187.645 150.07 187.75 153.856 187.848 156.465H203.888C203.888 156.465 203.67 151.619 203.715 145.956C203.734 142.557 203.866 134.293 202.704 131.198Z" fill="#0B0639"></path><path opacity="0.2" d="M187.221 142.403C187.341 143.843 187.465 145.354 187.597 146.866C189.255 141.436 190.315 135.984 190.315 135.984L187.221 142.403Z" fill="#0B0639"></path><path d="M185.995 132.461C183.93 134.1 181.889 142.124 181.889 142.124L186.807 144.734C188.491 142.541 191.146 137.691 191.165 135.781C191.217 132.844 188.623 130.682 185.995 132.461Z" fill="#0B0639"></path><path d="M182.049 199.964C182.05 200.288 181.955 200.605 181.777 200.875C181.598 201.145 181.343 201.356 181.044 201.48C180.745 201.605 180.416 201.639 180.098 201.577C179.781 201.514 179.489 201.359 179.259 201.131C179.03 200.902 178.873 200.611 178.809 200.293C178.746 199.976 178.778 199.647 178.901 199.347C179.025 199.048 179.234 198.792 179.503 198.612C179.773 198.432 180.089 198.336 180.413 198.336C180.628 198.335 180.841 198.377 181.039 198.459C181.238 198.541 181.419 198.662 181.571 198.814C181.723 198.966 181.843 199.146 181.925 199.345C182.007 199.544 182.049 199.757 182.049 199.972V199.964Z" fill="#0B0639"></path><path d="M206.449 199.964C206.449 200.287 206.545 200.603 206.725 200.872C206.905 201.141 207.16 201.351 207.459 201.475C207.758 201.599 208.087 201.631 208.404 201.568C208.721 201.505 209.013 201.349 209.241 201.12C209.47 200.892 209.626 200.6 209.689 200.283C209.752 199.966 209.72 199.637 209.596 199.338C209.472 199.039 209.262 198.783 208.994 198.604C208.725 198.424 208.408 198.328 208.085 198.328C207.651 198.328 207.235 198.5 206.928 198.807C206.622 199.114 206.449 199.53 206.449 199.964Z" fill="#0B0639"></path><path d="M192.655 199.444C192.655 199.768 192.751 200.084 192.931 200.353C193.111 200.622 193.366 200.831 193.665 200.955C193.964 201.079 194.293 201.111 194.61 201.048C194.927 200.985 195.219 200.829 195.447 200.601C195.676 200.372 195.832 200.081 195.895 199.763C195.958 199.446 195.926 199.117 195.802 198.818C195.678 198.519 195.469 198.264 195.2 198.084C194.931 197.905 194.614 197.809 194.291 197.809C193.857 197.809 193.441 197.981 193.134 198.288C192.828 198.594 192.655 199.01 192.655 199.444Z" fill="#0B0639"></path><path d="M210.258 197.393C210.231 197.573 210.14 197.736 210.001 197.854C209.863 197.971 209.687 198.035 209.506 198.033L193.838 197.799L179.174 198.175C178.993 198.178 178.817 198.114 178.678 197.996C178.54 197.879 178.449 197.716 178.422 197.536C178.38 197.337 178.417 197.129 178.524 196.956C178.631 196.782 178.8 196.656 178.997 196.604L187.01 194.908C187.839 194.739 188.683 194.653 189.529 194.652H198.139C198.984 194.653 199.827 194.738 200.655 194.908L209.679 196.476C209.874 196.527 210.042 196.65 210.15 196.82C210.257 196.991 210.296 197.196 210.258 197.393Z" fill="#0B0639"></path><path d="M197.134 180.164H191.332V194.644H197.134V180.164Z" fill="#0B0639"></path><path d="M196.306 173.426H192.17V180.16H196.306V173.426Z" fill="#188EF8"></path><path opacity="0.2" d="M196.306 173.426H192.17V180.16H196.306V173.426Z" fill="#0B0639"></path><path opacity="0.5" d="M196.306 173.426H192.17V180.16H196.306V173.426Z" fill="#0B0639"></path><path opacity="0.5" d="M192.17 175.404L196.306 176.445V173.426H192.17V175.404Z" fill="#0B0639"></path><path d="M180.265 158.191H178.163V167.159H180.265V158.191Z" fill="#188EF8"></path><path opacity="0.5" d="M180.265 158.191H178.163V167.159H180.265V158.191Z" fill="#0B0639"></path><path d="M190.801 173.425V136.984C190.8 136.254 190.956 135.532 191.258 134.867C191.559 134.203 192 133.61 192.549 133.13L195.328 130.697C196.265 129.878 197.467 129.427 198.712 129.43H203.822L208.71 134.649V173.425H190.801Z" fill="#188EF8"></path><path d="M175.855 165.883H198.754V173.425H172.125C171.648 173.425 171.179 173.298 170.766 173.057C170.354 172.817 170.012 172.472 169.775 172.058C169.538 171.643 169.416 171.173 169.419 170.695C169.422 170.218 169.552 169.75 169.794 169.338C170.417 168.285 171.304 167.413 172.367 166.807C173.429 166.201 174.632 165.882 175.855 165.883Z" fill="#188EF8"></path><path opacity="0.7" d="M208.718 134.649V173.425H172.125C171.648 173.425 171.179 173.298 170.766 173.058C170.354 172.817 170.012 172.472 169.775 172.058C169.538 171.643 169.416 171.173 169.419 170.695C169.422 170.218 169.552 169.75 169.794 169.338C170.416 168.287 171.301 167.415 172.361 166.809C173.422 166.203 174.622 165.884 175.844 165.883H187.368C188.277 165.883 189.148 165.522 189.791 164.88C190.433 164.237 190.794 163.366 190.794 162.458V136.98C190.793 136.25 190.949 135.529 191.251 134.865C191.552 134.201 191.993 133.609 192.542 133.13L195.321 130.697C196.257 129.876 197.46 129.425 198.705 129.43H203.815L208.718 134.649Z" fill="white"></path><path d="M194.139 173.425V136.984C194.139 136.254 194.295 135.532 194.597 134.868C194.898 134.203 195.338 133.611 195.887 133.13L198.666 130.697C199.602 129.878 200.805 129.427 202.05 129.43H204.945C205.644 129.43 206.337 129.573 206.979 129.85C207.621 130.127 208.199 130.533 208.679 131.043L210.675 133.171C211.569 134.12 212.067 135.375 212.066 136.679V169.523C212.066 170.035 211.965 170.543 211.769 171.016C211.573 171.49 211.286 171.92 210.923 172.282C210.561 172.645 210.131 172.932 209.657 173.128C209.184 173.325 208.676 173.425 208.163 173.425H194.139Z" fill="#188EF8"></path><path opacity="0.5" d="M194.139 173.425V136.984C194.139 136.254 194.295 135.532 194.597 134.868C194.898 134.203 195.338 133.611 195.887 133.13L198.666 130.697C199.602 129.878 200.805 129.427 202.05 129.43H204.945C205.644 129.43 206.337 129.573 206.979 129.85C207.621 130.127 208.199 130.533 208.679 131.043L210.675 133.171C211.569 134.12 212.067 135.375 212.066 136.679V169.523C212.066 170.035 211.965 170.543 211.769 171.016C211.573 171.49 211.286 171.92 210.923 172.282C210.561 172.645 210.131 172.932 209.657 173.128C209.184 173.325 208.676 173.425 208.163 173.425H194.139Z" fill="white"></path><path d="M186.351 160.848C181.725 159.235 176.689 159.235 172.063 160.848C171.599 161.024 171.087 161.023 170.623 160.847C170.16 160.67 169.777 160.329 169.548 159.889C169.119 158.983 169.694 157.81 170.86 157.4C176.262 155.512 182.145 155.512 187.547 157.4C188.713 157.806 189.288 158.983 188.859 159.889C188.63 160.327 188.248 160.666 187.786 160.842C187.325 161.019 186.814 161.021 186.351 160.848Z" fill="#188EF8"></path><path opacity="0.7" d="M186.351 160.848C181.725 159.235 176.689 159.235 172.063 160.848C171.599 161.024 171.087 161.023 170.623 160.847C170.16 160.67 169.777 160.329 169.548 159.889C169.119 158.983 169.694 157.81 170.86 157.4C176.262 155.512 182.145 155.512 187.547 157.4C188.713 157.806 189.288 158.983 188.859 159.889C188.63 160.327 188.248 160.666 187.786 160.842C187.325 161.019 186.814 161.021 186.351 160.848Z" fill="white"></path><path d="M212.937 91.1408L223.277 91.0355C223.645 91.0356 223.999 90.8909 224.261 90.6327C224.523 90.3746 224.674 90.0236 224.68 89.6556V79.0486C224.687 78.9824 224.687 78.9156 224.68 78.8493C224.628 78.521 224.46 78.2223 224.205 78.0081C223.951 77.794 223.628 77.6788 223.296 77.6837L200.251 77.8229C199.883 77.8228 199.529 77.9681 199.267 78.2272C199.005 78.4863 198.856 78.8382 198.852 79.2065V89.8097C198.845 89.876 198.845 89.9428 198.852 90.009C198.904 90.3374 199.072 90.6361 199.326 90.8502C199.581 91.0644 199.904 91.1796 200.236 91.1746H209.591L211.444 96.9801L212.937 91.1408Z" fill="white"></path><path d="M211.476 97.6454L209.465 91.3474H200.249C200.04 91.3585 199.832 91.3261 199.637 91.2521C199.441 91.1782 199.263 91.0644 199.115 90.9179C198.966 90.7715 198.849 90.5956 198.772 90.4016C198.694 90.2075 198.658 89.9995 198.666 89.7908V79.1913C198.673 78.7753 198.842 78.3784 199.137 78.0849C199.431 77.7914 199.829 77.6245 200.245 77.6197L223.298 77.4805C223.675 77.4767 224.042 77.6086 224.33 77.8523C224.619 78.0959 224.81 78.435 224.869 78.8078C224.877 78.8841 224.877 78.9609 224.869 79.0372V89.6404C224.862 90.0564 224.692 90.4529 224.396 90.7457C224.101 91.0385 223.703 91.2045 223.287 91.2083L213.086 91.3098L211.476 97.6454ZM209.739 90.9714L211.431 96.2843L212.796 90.9526L223.283 90.8473C223.602 90.8474 223.909 90.7215 224.136 90.497C224.364 90.2725 224.493 89.9674 224.497 89.6479V79.0485C224.503 78.991 224.503 78.933 224.497 78.8755C224.452 78.593 224.307 78.3361 224.088 78.1518C223.869 77.9675 223.591 77.868 223.305 77.8716L200.268 78.0145C199.949 78.0145 199.642 78.1405 199.416 78.3651C199.189 78.5897 199.06 78.8948 199.057 79.2139V89.8133C199.049 89.8708 199.049 89.9289 199.057 89.9863C199.101 90.2685 199.246 90.5254 199.464 90.7097C199.682 90.8941 199.96 90.9937 200.245 90.9902L209.739 90.9714Z" fill="#188EF8"></path><path d="M214.176 79.9492H203.775V80.3252H214.176V79.9492Z" fill="#188EF8"></path><path d="M222.878 79.9492H216.603V80.3252H222.878V79.9492Z" fill="#188EF8"></path><path d="M206.713 82.7266H201.017V83.1026H206.713V82.7266Z" fill="#188EF8"></path><path d="M222.485 82.7266H208.742V83.1026H222.485V82.7266Z" fill="#188EF8"></path><path d="M215.463 85.5H200.987V85.876H215.463V85.5Z" fill="#188EF8"></path><path d="M222.457 85.5H217.727V85.876H222.457V85.5Z" fill="#188EF8"></path><path d="M204.806 88.2734H201.046V88.6494H204.806V88.2734Z" fill="#188EF8"></path><path d="M226.798 92.8424L242.534 92.7033C242.866 92.6985 243.188 92.8138 243.442 93.028C243.696 93.2422 243.863 93.5408 243.914 93.8689C243.919 93.9352 243.919 94.0018 243.914 94.0682L243.895 104.671C243.89 105.039 243.741 105.391 243.479 105.65C243.217 105.908 242.864 106.054 242.496 106.055L232.525 106.16C230.385 109.225 226.847 109.71 226.847 109.71C226.847 109.71 228.844 107.683 229.209 106.179H226.795C226.462 106.183 226.14 106.068 225.886 105.854C225.632 105.64 225.463 105.342 225.411 105.014C225.407 104.947 225.407 104.881 225.411 104.814V94.211C225.42 93.8476 225.569 93.5017 225.828 93.2463C226.087 92.991 226.435 92.8462 226.798 92.8424Z" fill="white"></path><path d="M226.309 109.974L226.685 109.579C226.703 109.56 228.444 107.778 228.941 106.371H226.779C226.401 106.376 226.035 106.244 225.747 106C225.459 105.757 225.268 105.417 225.211 105.044C225.203 104.968 225.203 104.891 225.211 104.815V94.2154C225.217 93.7994 225.386 93.4024 225.681 93.1089C225.976 92.8154 226.374 92.6485 226.79 92.6437L242.525 92.5046C242.733 92.4985 242.939 92.5344 243.133 92.61C243.326 92.6857 243.502 92.7997 243.65 92.945C243.798 93.0904 243.916 93.2642 243.995 93.456C244.074 93.6478 244.114 93.8536 244.112 94.0612L244.093 104.664C244.085 105.08 243.916 105.477 243.62 105.77C243.325 106.063 242.926 106.228 242.51 106.232L232.633 106.334C231.222 108.208 229.155 109.478 226.846 109.891L226.309 109.974ZM229.429 105.992L229.373 106.225C229.102 107.353 227.993 108.71 227.376 109.398C229.382 108.894 231.152 107.712 232.385 106.052L232.441 105.973L242.507 105.868C242.665 105.869 242.822 105.838 242.969 105.779C243.116 105.719 243.249 105.631 243.362 105.519C243.475 105.408 243.565 105.276 243.626 105.129C243.688 104.983 243.72 104.827 243.721 104.668L243.74 94.0687C243.744 94.0111 243.744 93.9534 243.74 93.8958C243.696 93.6132 243.552 93.3559 243.334 93.1714C243.115 92.9869 242.838 92.8876 242.552 92.8918L226.812 93.031C226.493 93.03 226.185 93.1555 225.958 93.3803C225.73 93.605 225.601 93.9106 225.598 94.2304V104.83C225.594 104.887 225.594 104.945 225.598 105.003C225.643 105.285 225.788 105.541 226.006 105.725C226.224 105.91 226.501 106.009 226.786 106.007L229.429 105.992Z" fill="#188EF8"></path><path d="M233.242 97.7422H227.546V98.1182H233.242V97.7422Z" fill="#188EF8"></path><path d="M239.719 94.9688H229.319V95.3448H239.719V94.9688Z" fill="#188EF8"></path><path d="M241.575 97.7422H234.288V98.1182H241.575V97.7422Z" fill="#188EF8"></path><path d="M241.007 100.52H226.531V100.896H241.007V100.52Z" fill="#188EF8"></path><path d="M230.349 103.293H226.589V103.669H230.349V103.293Z" fill="#188EF8"></path><path d="M193.714 104.542L192.804 107.474L191.608 104.489C190.134 104.189 188.827 103.347 187.942 102.131C187.058 100.914 186.662 99.4104 186.831 97.9159C187.001 96.4215 187.724 95.0447 188.858 94.0571C189.993 93.0694 191.456 92.5424 192.959 92.58C194.463 92.6176 195.898 93.217 196.981 94.2601C198.065 95.3033 198.718 96.7144 198.813 98.2155C198.908 99.7165 198.437 101.199 197.493 102.37C196.549 103.541 195.201 104.316 193.714 104.542Z" fill="white"></path><path d="M192.825 108.033L191.471 104.649C189.964 104.317 188.634 103.435 187.741 102.176C186.848 100.917 186.455 99.3702 186.641 97.8376C186.826 96.3051 187.575 94.8963 188.742 93.8861C189.909 92.8758 191.411 92.3363 192.954 92.3728C194.497 92.4093 195.972 93.0192 197.09 94.0836C198.208 95.1479 198.89 96.5905 199.002 98.1301C199.115 99.6697 198.65 101.196 197.698 102.412C196.747 103.627 195.377 104.445 193.855 104.705L192.825 108.033ZM192.802 92.7408C191.355 92.7415 189.959 93.2798 188.886 94.2512C187.813 95.2226 187.139 96.5579 186.995 97.9981C186.851 99.4384 187.246 100.881 188.105 102.046C188.964 103.211 190.226 104.015 191.644 104.303L191.746 104.322L192.78 106.908L193.565 104.37L193.682 104.352C195.136 104.128 196.452 103.364 197.367 102.213C198.283 101.061 198.729 99.6058 198.618 98.1389C198.507 96.6719 197.846 95.301 196.768 94.3002C195.69 93.2994 194.273 92.7425 192.802 92.7408Z" fill="#188EF8"></path><path d="M193.422 97.6622C193.455 97.2862 193.128 97.0644 192.651 97.0644C192.407 97.0649 192.166 97.1268 191.952 97.2444C191.738 97.362 191.557 97.5315 191.425 97.7374L190.102 96.9854C190.669 96.1544 191.606 95.6055 192.993 95.6055C194.433 95.6055 195.403 96.2184 195.305 97.3576C195.178 98.8165 193.628 99.0308 193.553 99.8881H191.88C191.997 98.6699 193.361 98.3615 193.422 97.6622ZM191.542 101.377C191.571 101.103 191.704 100.85 191.914 100.671C192.124 100.492 192.394 100.4 192.67 100.415C192.8 100.401 192.932 100.416 193.056 100.459C193.18 100.502 193.293 100.573 193.386 100.665C193.48 100.757 193.552 100.868 193.597 100.992C193.642 101.115 193.659 101.246 193.647 101.377C193.615 101.655 193.479 101.91 193.266 102.092C193.053 102.273 192.78 102.367 192.5 102.355C192.37 102.365 192.239 102.347 192.116 102.301C191.994 102.256 191.883 102.184 191.791 102.091C191.699 101.997 191.629 101.885 191.585 101.762C191.542 101.639 191.525 101.507 191.538 101.377H191.542Z" fill="#188EF8"></path><path d="M184.215 113.312C184.554 113.312 184.828 113.037 184.828 112.699C184.828 112.36 184.554 112.086 184.215 112.086C183.877 112.086 183.603 112.36 183.603 112.699C183.603 113.037 183.877 113.312 184.215 113.312Z" fill="white"></path><path d="M184.214 113.504C184.055 113.504 183.899 113.457 183.767 113.368C183.634 113.28 183.531 113.154 183.47 113.007C183.41 112.86 183.394 112.698 183.425 112.542C183.456 112.386 183.532 112.243 183.645 112.13C183.757 112.018 183.901 111.941 184.057 111.91C184.213 111.879 184.375 111.895 184.522 111.956C184.669 112.017 184.794 112.12 184.883 112.252C184.971 112.384 185.018 112.54 185.018 112.699C185.018 112.913 184.934 113.117 184.783 113.268C184.632 113.419 184.427 113.504 184.214 113.504ZM184.214 112.274C184.129 112.274 184.046 112.3 183.975 112.347C183.905 112.394 183.85 112.461 183.817 112.54C183.785 112.618 183.777 112.705 183.794 112.788C183.811 112.871 183.852 112.948 183.912 113.007C183.972 113.067 184.049 113.108 184.133 113.124C184.216 113.14 184.302 113.131 184.38 113.098C184.459 113.065 184.525 113.009 184.572 112.938C184.619 112.867 184.643 112.784 184.642 112.699C184.641 112.586 184.596 112.478 184.516 112.399C184.435 112.319 184.327 112.274 184.214 112.274Z" fill="#188EF8"></path><path d="M183.046 110.373C183.127 110.494 183.18 110.63 183.204 110.773C183.228 110.916 183.22 111.063 183.183 111.203C183.146 111.343 183.079 111.474 182.987 111.586C182.896 111.698 182.781 111.79 182.651 111.855C182.522 111.919 182.38 111.956 182.235 111.961C182.09 111.967 181.945 111.942 181.811 111.887C181.676 111.833 181.555 111.751 181.455 111.646C181.355 111.541 181.278 111.416 181.23 111.279C179.787 111.715 178.233 111.593 176.875 110.938C175.518 110.283 174.456 109.142 173.899 107.741C173.343 106.34 173.333 104.781 173.871 103.373C174.409 101.965 175.456 100.81 176.805 100.137C178.153 99.4638 179.706 99.3217 181.154 99.7385C182.603 100.155 183.842 101.101 184.627 102.388C185.412 103.675 185.685 105.21 185.392 106.688C185.099 108.167 184.262 109.482 183.046 110.373Z" fill="white"></path><path d="M182.191 112.139C181.972 112.138 181.757 112.078 181.57 111.965C181.382 111.853 181.228 111.692 181.123 111.5C180.59 111.643 180.04 111.717 179.488 111.718C178.023 111.715 176.606 111.193 175.49 110.245C174.373 109.296 173.63 107.982 173.391 106.537C173.153 105.092 173.434 103.608 174.187 102.351C174.939 101.094 176.112 100.145 177.499 99.6715C178.885 99.1984 180.395 99.2324 181.758 99.7675C183.122 100.303 184.252 101.304 184.946 102.594C185.641 103.884 185.856 105.378 185.552 106.811C185.249 108.244 184.447 109.523 183.289 110.421C183.362 110.58 183.401 110.753 183.402 110.928C183.401 111.249 183.273 111.556 183.046 111.783C182.819 112.01 182.512 112.138 182.191 112.139ZM181.352 111.041L181.413 111.21C181.455 111.319 181.519 111.417 181.602 111.499C181.685 111.582 181.784 111.645 181.893 111.687C182.001 111.729 182.118 111.747 182.234 111.741C182.351 111.735 182.464 111.704 182.568 111.652C182.672 111.599 182.764 111.525 182.838 111.435C182.911 111.344 182.965 111.239 182.996 111.127C183.026 111.015 183.033 110.897 183.016 110.782C182.998 110.667 182.957 110.556 182.894 110.458L182.796 110.312L182.939 110.206C184.12 109.343 184.933 108.069 185.219 106.635C185.504 105.2 185.241 103.711 184.481 102.462C183.721 101.213 182.52 100.294 181.115 99.8886C179.71 99.4829 178.204 99.6194 176.895 100.271C175.586 100.923 174.569 102.042 174.046 103.408C173.523 104.773 173.532 106.286 174.071 107.645C174.609 109.004 175.639 110.112 176.955 110.749C178.272 111.385 179.779 111.504 181.18 111.082L181.352 111.041Z" fill="#188EF8"></path><path d="M180.118 104.502C180.152 104.126 179.825 103.904 179.347 103.904C179.103 103.905 178.863 103.967 178.648 104.084C178.434 104.202 178.253 104.371 178.121 104.577L176.798 103.825C177.366 102.994 178.302 102.445 179.689 102.445C181.129 102.445 182.099 103.058 182.002 104.197C181.874 105.656 180.325 105.871 180.25 106.728H178.588C178.693 105.51 180.058 105.201 180.118 104.502ZM178.238 108.217C178.267 107.943 178.401 107.69 178.61 107.511C178.82 107.332 179.091 107.24 179.366 107.254C179.496 107.24 179.628 107.256 179.752 107.299C179.876 107.342 179.989 107.412 180.082 107.504C180.176 107.596 180.248 107.708 180.293 107.831C180.338 107.955 180.355 108.086 180.344 108.217C180.311 108.495 180.175 108.75 179.963 108.931C179.75 109.113 179.476 109.207 179.197 109.195C179.066 109.205 178.935 109.187 178.813 109.141C178.69 109.096 178.579 109.024 178.487 108.93C178.396 108.837 178.325 108.725 178.282 108.602C178.238 108.478 178.222 108.347 178.234 108.217H178.238Z" fill="#188EF8"></path></svg> 