<?xml version="1.0" standalone="no"?>
<!DOCTYPE svg PUBLIC "-//W3C//DTD SVG 20010904//EN"
 "http://www.w3.org/TR/2001/REC-SVG-20010904/DTD/svg10.dtd">
<svg version="1.0" xmlns="http://www.w3.org/2000/svg"
 width="592.000000pt" height="422.000000pt" viewBox="0 0 592.000000 422.000000"
 preserveAspectRatio="xMidYMid meet">

<g transform="translate(0.000000,422.000000) scale(0.100000,-0.100000)"
fill="white" stroke="none">
<path d="M1328 3498 c-50 -13 -112 -69 -138 -124 l-22 -45 1 -1054 c0 -936 2
-1059 16 -1092 20 -48 50 -79 100 -106 l40 -22 1615 -3 c1157 -3 1629 0 1666
7 60 14 116 57 147 114 l22 42 0 1060 0 1060 -24 40 c-38 62 -62 86 -116 111
l-50 24 -1610 -1 c-1011 -1 -1624 -5 -1647 -11z m1673 -59 c9 -18 8 -25 -8
-41 -35 -34 -80 7 -47 43 22 25 41 24 55 -2z m1213 -95 c22 -21 20 -57 -4 -79
-44 -39 -104 32 -65 75 22 24 48 26 69 4z m154 0 c30 -21 29 -59 -4 -81 -31
-20 -54 -10 -68 30 -8 21 -6 31 9 47 22 24 33 25 63 4z m169 -6 c28 -26 29
-49 4 -72 -27 -25 -72 -17 -90 15 -13 24 -13 29 2 53 21 32 53 33 84 4z
m-3093 -4 c21 -21 20 -40 -4 -64 -17 -17 -24 -18 -41 -10 -27 15 -34 36 -21
66 13 28 43 31 66 8z m124 4 c20 -20 15 -66 -9 -78 -16 -9 -25 -8 -40 6 -33
29 -19 84 21 84 9 0 21 -5 28 -12z m137 -12 c18 -26 11 -52 -16 -67 -40 -21
-81 29 -59 71 15 28 56 26 75 -4z m1285 -146 c0 -42 -3 -50 -19 -50 -24 0 -29
15 -23 63 3 28 9 37 23 37 16 0 19 -8 19 -50z m-136 -29 c15 -16 26 -37 24
-47 -6 -32 -35 -27 -63 10 -23 30 -25 39 -15 51 17 21 22 19 54 -14z m289 7
c8 -12 3 -23 -21 -49 -26 -28 -33 -31 -46 -20 -22 18 -20 24 11 60 29 33 40
35 56 9z m-114 -134 c27 -34 26 -57 -2 -90 -28 -32 -76 -37 -106 -10 -41 37
-28 110 23 131 35 15 54 8 85 -31z m-221 -10 c16 -5 22 -13 20 -28 -2 -17 -11
-22 -46 -24 -31 -2 -44 1 -48 12 -15 39 16 55 74 40z m410 -27 c3 -28 3 -28
-50 -25 -46 3 -53 6 -56 25 -3 17 3 22 25 26 60 9 78 4 81 -26z m-341 -103 c6
-17 -42 -74 -64 -74 -25 0 -25 29 -1 59 25 33 55 40 65 15z m247 -13 c17 -18
26 -36 23 -45 -9 -24 -30 -19 -62 14 -23 24 -26 32 -15 45 17 21 22 19 54 -14z
m-126 -78 c3 -40 1 -43 -21 -43 -27 0 -37 16 -37 61 0 27 3 30 28 27 24 -3 27
-7 30 -45z m582 -190 c51 -22 123 -92 141 -136 17 -39 -1 -53 -77 -62 -58 -6
-61 -6 -72 19 -26 58 -127 85 -191 51 -32 -16 -41 -33 -41 -75 0 -43 47 -75
160 -110 173 -53 236 -116 234 -235 -3 -217 -271 -317 -480 -180 -48 31 -104
102 -118 152 -6 19 -2 22 36 27 111 14 120 13 128 -8 44 -115 244 -127 273
-16 14 56 -10 76 -148 124 -66 23 -135 53 -153 66 -76 56 -101 204 -50 292 33
56 44 64 115 94 71 30 172 29 243 -3z m950 -369 c0 -217 1 -397 3 -401 1 -5
-33 -9 -75 -11 l-78 -3 0 406 0 406 75 -2 75 -2 0 -393z m-2789 376 c205 -39
327 -234 291 -465 -27 -171 -134 -286 -294 -315 -30 -6 -122 -9 -204 -8 l-149
3 -3 398 -2 397 154 0 c84 0 177 -5 207 -10z m687 -192 c53 -14 120 -72 154
-134 28 -52 54 -163 45 -188 -5 -13 -40 -16 -221 -18 l-214 -3 14 -40 c33 -97
158 -126 234 -55 30 28 34 29 100 23 39 -3 70 -9 70 -13 0 -4 -20 -35 -44 -67
-59 -81 -113 -108 -216 -108 -88 0 -145 24 -209 87 -48 48 -68 88 -82 165 -26
138 27 264 136 329 73 42 132 48 233 22z m371 -216 c41 -122 78 -219 82 -215
4 5 26 69 49 143 24 74 55 171 70 215 l26 80 78 3 c72 3 78 1 73 -15 -21 -64
-104 -302 -151 -433 -31 -85 -56 -156 -56 -157 0 -2 -39 -3 -88 -3 l-87 0 -34
88 c-51 134 -120 320 -143 387 -11 33 -29 77 -40 98 l-19 38 83 -3 83 -3 74
-223z m1358 208 c63 -28 137 -102 163 -163 34 -78 32 -186 -3 -260 -30 -61
-83 -114 -149 -149 -34 -18 -59 -23 -118 -22 -97 0 -164 28 -224 95 -54 60
-71 116 -71 234 0 81 3 95 30 144 53 97 132 140 255 140 53 0 87 -5 117 -19z"/>
<path d="M1538 2219 l3 -261 87 7 c94 8 141 26 183 72 49 52 63 92 64 178 0
99 -22 161 -75 209 -47 43 -92 56 -190 56 l-75 0 3 -261z"/>
<path d="M2280 2293 c-33 -17 -80 -74 -80 -97 0 -7 45 -12 135 -14 149 -3 153
-1 119 58 -34 57 -116 82 -174 53z"/>
<path d="M3963 2280 c-48 -29 -67 -73 -67 -155 0 -115 49 -175 144 -175 95 0
145 65 145 185 0 80 -16 113 -68 145 -42 26 -112 26 -154 0z"/>
<path d="M834 947 c10 -48 51 -93 113 -124 l58 -28 1976 0 1976 0 49 30 c50
31 94 92 94 131 l0 20 -840 0 -840 -1 -11 -27 c-6 -15 -23 -35 -38 -45 -24
-16 -60 -18 -404 -21 -416 -4 -407 -5 -445 57 l-17 29 -839 5 -838 5 6 -31z"/>
</g>
</svg>
