<?xml version="1.0" encoding="UTF-8"?>
<svg version="1.1" xmlns="http://www.w3.org/2000/svg" width="694" height="313">
<path d="M0 0 C0.7425 0.48082031 1.485 0.96164063 2.25 1.45703125 C10.60373483 7.2770046 13.44763755 12.14973347 15.51953125 22.07421875 C16 25 16 25 16 28 C11.65860566 28.16800236 7.31701785 28.32851981 2.97509766 28.48217773 C1.49878539 28.53547011 0.02254481 28.59078903 -1.45361328 28.64819336 C-3.57829334 28.73046212 -5.70312651 28.80538335 -7.828125 28.87890625 C-9.1059082 28.9260376 -10.38369141 28.97316895 -11.70019531 29.02172852 C-14.40839322 29.00389561 -16.4935951 28.98694454 -19 28 C-19.433125 27.01 -19.433125 27.01 -19.875 26 C-20.24625 25.34 -20.6175 24.68 -21 24 C-24.05908413 23.18415432 -24.05908413 23.18415432 -27 23 C-26.34 22.34 -25.68 21.68 -25 21 C-25.99 21.33 -26.98 21.66 -28 22 C-28.41870553 24.33071879 -28.41870553 24.33071879 -28 27 C-24.52051264 30.92845347 -20.86408943 31.70085966 -15.890625 32.5078125 C-15.26671875 32.67023438 -14.6428125 32.83265625 -14 33 C-13.67 33.66 -13.34 34.32 -13 35 C-11.19234069 35.80992527 -9.35237385 36.54834324 -7.5 37.25 C2.57448505 41.34910839 11.26487925 46.8545516 16.4375 56.75 C17.8473315 64.89569309 18.07913517 73.59520048 14 81 C7.52625114 90.09602688 -0.50922013 95.70910051 -11.54296875 97.71875 C-25.02200727 99.26166061 -39.66449161 97.97065221 -51 90 C-52.0725 89.2575 -53.145 88.515 -54.25 87.75 C-59.61080861 82.38919139 -62.51758417 76.55784801 -63 69 C-63.99580078 69.81404297 -63.99580078 69.81404297 -65.01171875 70.64453125 C-65.89472656 71.35996094 -66.77773438 72.07539063 -67.6875 72.8125 C-68.55761719 73.52019531 -69.42773438 74.22789062 -70.32421875 74.95703125 C-76.94377269 80.01108484 -76.94377269 80.01108484 -80.60546875 79.97265625 C-83.70315037 78.71438101 -84.59501956 77.2733398 -86.3125 74.4375 C-86.82425781 73.61121094 -87.33601563 72.78492188 -87.86328125 71.93359375 C-88.23839844 71.29550781 -88.61351562 70.65742188 -89 70 C-92.71068342 78.88381266 -95.78767854 87.89842254 -99 97 C-112.2 97 -125.4 97 -139 97 C-141.2958779 91.26030525 -143.51751969 85.69892441 -145.47363281 79.86962891 C-145.68879547 79.23085815 -145.90395813 78.5920874 -146.12564087 77.93395996 C-146.82123696 75.86585294 -147.51248039 73.79632786 -148.203125 71.7265625 C-148.69056843 70.27067261 -149.17809848 68.81481172 -149.66571045 67.35897827 C-150.67964974 64.32905201 -151.69115718 61.29832647 -152.70117188 58.26708984 C-153.99521341 54.38476057 -155.29754168 50.50526553 -156.60191727 46.62639809 C-157.6080029 43.63035451 -158.60864378 40.63251365 -159.60774994 37.6341362 C-160.0858583 36.20216822 -160.56590852 34.77084704 -161.04795074 33.34019852 C-161.71899268 31.34665144 -162.38239621 29.35071779 -163.04394531 27.35400391 C-163.42270813 26.22056549 -163.80147095 25.08712708 -164.19171143 23.91934204 C-165 21 -165 21 -165 17 C-153.78 17 -142.56 17 -131 17 C-129.4288656 22.90705726 -127.86075147 28.81474675 -126.30029297 34.72460938 C-125.76853462 36.73484412 -125.23501738 38.74461446 -124.69970703 40.75390625 C-123.9305884 43.6420252 -123.16780978 46.53175499 -122.40625 49.421875 C-122.16563843 50.31992859 -121.92502686 51.21798218 -121.67712402 52.14324951 C-121.34678162 53.4041037 -121.34678162 53.4041037 -121.00976562 54.69042969 C-120.81435181 55.42767273 -120.61893799 56.16491577 -120.41760254 56.92449951 C-120 59 -120 59 -120 63 C-119.34 63 -118.68 63 -118 63 C-117.87689453 61.85708496 -117.75378906 60.71416992 -117.62695312 59.53662109 C-117.06587647 55.06604774 -116.08035768 50.77577501 -114.96875 46.4140625 C-114.77277222 45.63106781 -114.57679443 44.84807312 -114.37487793 44.04135132 C-113.96358241 42.40216713 -113.55002083 40.76354999 -113.13427734 39.12548828 C-112.49679131 36.61235049 -111.86699521 34.09737635 -111.23828125 31.58203125 C-110.83638376 29.98426268 -110.43405551 28.38660239 -110.03125 26.7890625 C-109.84268433 26.03702545 -109.65411865 25.2849884 -109.45983887 24.51016235 C-108.1161316 19.2322632 -108.1161316 19.2322632 -107 17 C-95.78 17 -84.56 17 -73 17 C-74.30340333 22.865315 -75.64087886 28.30519847 -77.6015625 33.921875 C-78.09649598 35.37364958 -78.59128347 36.82547393 -79.0859375 38.27734375 C-79.8580571 40.5251683 -80.63265025 42.77209914 -81.41015625 45.01806641 C-82.16798049 47.21299577 -82.91648129 49.41093969 -83.6640625 51.609375 C-83.89839996 52.2771698 -84.13273743 52.9449646 -84.37417603 53.63299561 C-85.57764403 57.18676116 -86.45885395 60.24603679 -86 64 C-84.08667706 67.49598994 -84.08667706 67.49598994 -81 70 C-77.46004169 70.20823284 -75.09453661 69.67625201 -72.05981445 67.80126953 C-63.84523649 62.73027187 -55.67498875 63.43083503 -46.375 63.6875 C-44.78258734 63.71262971 -43.19013621 63.73543459 -41.59765625 63.75585938 C-37.73080587 63.81045123 -33.8658366 63.89645649 -30 64 C-29.01 67.465 -29.01 67.465 -28 71 C-26.72125 71.20625 -25.4425 71.4125 -24.125 71.625 C-23.04605469 71.79902344 -23.04605469 71.79902344 -21.9453125 71.9765625 C-20.98238281 71.98816406 -20.98238281 71.98816406 -20 72 C-19.34 71.34 -18.68 70.68 -18 70 C-18.01666329 67.49675668 -18.01666329 67.49675668 -19 65 C-23.09934866 61.41979272 -27.87527194 60.01614705 -32.9375 58.25 C-33.83146484 57.92128906 -34.72542969 57.59257812 -35.64648438 57.25390625 C-36.51466797 56.94839844 -37.38285156 56.64289063 -38.27734375 56.328125 C-39.06359131 56.0487207 -39.84983887 55.76931641 -40.65991211 55.48144531 C-43.44209786 54.90904361 -45.29890242 55.15743182 -48 56 C-48.6922777 57.32021733 -49.3598088 58.65375431 -50 60 C-54.27666862 61.59395185 -58.36279024 61.17280265 -62.6875 60 C-67.87320369 56.86900909 -71.6289246 52.60829706 -74 47 C-74.65882353 40.08235294 -74.65882353 40.08235294 -72.25 36.125 C-70 34 -70 34 -67.9296875 33.12109375 C-65.85335136 32.17693175 -65.85335136 32.17693175 -65.2421875 30.15234375 C-65.06042969 29.05599609 -65.06042969 29.05599609 -64.875 27.9375 C-64.64876953 26.7309375 -64.64876953 26.7309375 -64.41796875 25.5 C-64.28003906 24.675 -64.14210938 23.85 -64 23 C-62.60520468 14.65940574 -59.90100224 7.4988199 -52.93359375 2.16015625 C-38.42824864 -6.54305082 -14.6204017 -9.94709473 0 0 Z M-64 35 C-64.32603065 41.11005592 -64.45168355 45.69920026 -61 51 C-60.4225 51.969375 -59.845 52.93875 -59.25 53.9375 C-57.0632074 56.39954136 -57.0632074 56.39954136 -53.375 56.0625 C-49.93752866 55.35798084 -49.93752866 55.35798084 -48.5625 52.9375 C-48.376875 52.298125 -48.19125 51.65875 -48 51 C-48.86625 50.484375 -49.7325 49.96875 -50.625 49.4375 C-55.90955255 45.90611655 -60.13686195 41.14835558 -62 35 C-62.66 35 -63.32 35 -64 35 Z " fill="#191919" transform="translate(466,80)"/>
<path d="M0 0 C1.80546789 -0.01675227 3.6108646 -0.04428616 5.41601562 -0.08203125 C25.6200549 -0.49689859 43.21594766 3.66905826 58.33618164 17.99853516 C69.62937149 29.61990317 76.50754126 43.96338258 76.62133789 60.35009766 C76.12633789 61.34009766 76.12633789 61.34009766 75.62133789 62.35009766 C60.12293933 62.37342711 44.62454207 62.39107706 29.1261301 62.40190983 C21.93043494 62.40707269 14.73475067 62.41411519 7.5390625 62.42553711 C1.26949095 62.43548426 -5.00007272 62.44195116 -11.26965195 62.44418615 C-14.59131831 62.44549321 -17.91295677 62.44909763 -21.23461723 62.45582771 C-24.93686158 62.46303393 -28.63905842 62.46408878 -32.34130859 62.46362305 C-34.00502251 62.46901596 -34.00502251 62.46901596 -35.7023468 62.47451782 C-36.7050058 62.47314316 -37.70766479 62.47176849 -38.7407074 62.47035217 C-39.61733253 62.47127397 -40.49395765 62.47219576 -41.39714718 62.47314548 C-43.37866211 62.35009766 -43.37866211 62.35009766 -44.37866211 61.35009766 C-44.47252592 59.47828825 -44.49610015 57.60291706 -44.4921875 55.72875977 C-44.49211197 54.52759018 -44.49203644 53.32642059 -44.49195862 52.08885193 C-44.48679733 50.78158646 -44.48163605 49.47432098 -44.47631836 48.12744141 C-44.47445409 46.78365634 -44.47303023 45.43987059 -44.47203064 44.09608459 C-44.46820613 40.55327489 -44.45837643 37.01050596 -44.44732666 33.4677124 C-44.4371111 29.85494539 -44.43253271 26.24217181 -44.42749023 22.62939453 C-44.41675409 15.53627886 -44.39967847 8.44319091 -44.37866211 1.35009766 C-29.58951732 0.69728899 -14.80462604 0.09989444 0 0 Z " fill="#191919" transform="translate(124.378662109375,63.64990234375)"/>
<path d="M0 0 C7.11350664 5.60762318 11.83931721 13.65571219 13.71875 22.546875 C15.35994517 36.861744 13.69075867 49.17318926 5 61 C-3.02210516 69.98554426 -14.03872439 73.26953212 -25.68359375 74.21875 C-38.21241875 74.65516771 -49.93323444 71.50338391 -59.25390625 62.92578125 C-67.86615409 53.83771861 -70.36862663 44.41280054 -71 32 C-70.61459859 20.70773855 -66.53435113 10.46400403 -59 2 C-42.29936889 -11.26306198 -17.65045895 -12.26840612 0 0 Z M-37 26 C-38.69255192 31.07765576 -38.61250636 35.37685815 -36.75 40.3125 C-34.4787931 43.85665377 -34.4787931 43.85665377 -31 46 C-28.11853843 46.24952863 -25.7223426 45.98943458 -23 45 C-19.31446951 41.21996873 -18.26637469 37.37407426 -17.89453125 32.24609375 C-18.10018138 27.86650772 -19.91619104 24.76831988 -22.1875 21.0625 C-29.01160942 17.06216 -33.33158145 20.33062588 -37 26 Z " fill="#191919" transform="translate(563,104)"/>
<path d="M0 0 C8.35640606 6.531116 12.25605587 15.62402933 14.2890625 25.7890625 C14.2890625 30.4090625 14.2890625 35.0290625 14.2890625 39.7890625 C-2.2109375 39.7890625 -18.7109375 39.7890625 -35.7109375 39.7890625 C-34.17780983 44.10515046 -34.17780983 44.10515046 -31.7109375 47.7890625 C-28.83680625 48.12304037 -28.83680625 48.12304037 -25.7109375 47.7890625 C-25.14665039 47.29494873 -24.58236328 46.80083496 -24.00097656 46.29174805 C-20.73730383 44.15018028 -17.65223143 44.41537449 -13.8828125 44.49609375 C-12.75930389 44.50246101 -12.75930389 44.50246101 -11.61309814 44.50895691 C-9.22867375 44.52570504 -6.84510497 44.56334853 -4.4609375 44.6015625 C-2.84115807 44.61661441 -1.22136535 44.63030193 0.3984375 44.64257812 C4.36230716 44.6755957 8.32553993 44.72735004 12.2890625 44.7890625 C10.22845533 55.67501412 5.22124321 62.17823949 -3.7109375 68.7890625 C-13.53482402 74.81863721 -24.40901198 76.11400938 -35.7109375 74.7890625 C-46.44143103 72.00954354 -55.33560259 66.97311138 -61.7109375 57.7890625 C-68.27682317 44.9273533 -69.67137087 31.55638827 -65.7578125 17.58203125 C-62.13041565 7.90446129 -54.8933237 0.3802556 -45.7109375 -4.2109375 C-30.98337612 -10.23148783 -13.3075759 -8.57599336 0 0 Z M-33.7109375 20.7890625 C-34.3709375 22.1090625 -35.0309375 23.4290625 -35.7109375 24.7890625 C-30.1009375 24.7890625 -24.4909375 24.7890625 -18.7109375 24.7890625 C-19.28019902 20.73483225 -19.28019902 20.73483225 -22.0234375 19.0390625 C-26.8200146 16.80809641 -29.6549892 17.80046901 -33.7109375 20.7890625 Z " fill="#191919" transform="translate(277.7109375,103.2109375)"/>
<path d="M0 0 C11.22 0 22.44 0 34 0 C35.5711344 5.90705726 37.13924853 11.81474675 38.69970703 17.72460938 C39.23146538 19.73484412 39.76498262 21.74461446 40.30029297 23.75390625 C41.0694116 26.6420252 41.83219022 29.53175499 42.59375 32.421875 C42.83436157 33.31992859 43.07497314 34.21798218 43.32287598 35.14324951 C43.65321838 36.4041037 43.65321838 36.4041037 43.99023438 37.69042969 C44.18564819 38.42767273 44.38106201 39.16491577 44.58239746 39.92449951 C45 42 45 42 45 46 C45.66 46 46.32 46 47 46 C47.12310547 44.85708496 47.24621094 43.71416992 47.37304688 42.53662109 C47.93412353 38.06604774 48.91964232 33.77577501 50.03125 29.4140625 C50.32521667 28.23957047 50.32521667 28.23957047 50.62512207 27.04135132 C51.03641759 25.40216713 51.44997917 23.76354999 51.86572266 22.12548828 C52.50320869 19.61235049 53.13300479 17.09737635 53.76171875 14.58203125 C54.16361624 12.98426268 54.56594449 11.38660239 54.96875 9.7890625 C55.15731567 9.03702545 55.34588135 8.2849884 55.54016113 7.51016235 C56.8838684 2.2322632 56.8838684 2.2322632 58 0 C69.22 0 80.44 0 92 0 C90.70936335 5.80786494 89.39612223 11.21332428 87.46875 16.78125 C87.23216675 17.47963989 86.9955835 18.17802979 86.75183105 18.89758301 C85.75506709 21.83954097 84.74743539 24.77774325 83.74072266 27.71630859 C79.81331626 39.20086658 79.81331626 39.20086658 77 51 C76.34 51 75.68 51 75 51 C74.74476563 52.26714844 74.48953125 53.53429687 74.2265625 54.83984375 C73.02666959 60.23936182 71.25022753 65.36624886 69.375 70.5625 C68.26125 73.676875 67.1475 76.79125 66 80 C52.8 80 39.6 80 26 80 C23.7041221 74.26030525 21.48248031 68.69892441 19.52636719 62.86962891 C19.31120453 62.23085815 19.09604187 61.5920874 18.87435913 60.93395996 C18.17876304 58.86585294 17.48751961 56.79632786 16.796875 54.7265625 C16.30943157 53.27067261 15.82190152 51.81481172 15.33428955 50.35897827 C14.32035026 47.32905201 13.30884282 44.29832647 12.29882812 41.26708984 C11.00478659 37.38476057 9.70245832 33.50526553 8.39808273 29.62639809 C7.3919971 26.63035451 6.39135622 23.63251365 5.39225006 20.6341362 C4.9141417 19.20216822 4.43409148 17.77084704 3.95204926 16.34019852 C3.28100732 14.34665144 2.61760379 12.35071779 1.95605469 10.35400391 C1.57729187 9.22056549 1.19852905 8.08712708 0.80828857 6.91934204 C0 4 0 4 0 0 Z " fill="#191919" transform="translate(301,97)"/>
<path d="M0 0 C10.56 0 21.12 0 32 0 C32 34.65 32 69.3 32 105 C21.44 105 10.88 105 0 105 C0 70.35 0 35.7 0 0 Z " fill="#191919" transform="translate(586,72)"/>
<path d="M0 0 C1.31493769 0.00138269 1.31493769 0.00138269 2.65643978 0.00279331 C4.16042828 0.00073132 4.16042828 0.00073132 5.69480038 -0.00137234 C7.35851429 0.00402058 7.35851429 0.00402058 9.05583858 0.00952244 C10.21665951 0.00937641 11.37748043 0.00923038 12.57347775 0.00907993 C16.43146759 0.00977966 20.28940985 0.01757485 24.14739132 0.02539158 C26.81397235 0.02725555 29.48055071 0.02872871 32.14713192 0.0296793 C38.46177386 0.03279235 44.77639858 0.04100539 51.09103292 0.05102879 C58.2783414 0.06219073 65.46565068 0.06770058 72.65296566 0.07272422 C87.44148096 0.08318802 102.22998272 0.10078696 117.01848507 0.12304783 C116.71066011 1.76976195 116.39709273 3.41540359 116.08098507 5.06054783 C115.90696163 5.97707127 115.73293819 6.8935947 115.55364132 7.83789158 C115.01848507 10.12304783 115.01848507 10.12304783 114.01848507 11.12304783 C112.51529803 11.22096478 111.00752374 11.24936581 109.50115108 11.25003147 C108.03719402 11.25426121 108.03719402 11.25426121 106.54366207 11.25857639 C105.46414272 11.25655216 104.38462337 11.25452793 103.27239132 11.25244236 C102.1424374 11.25419468 101.01248348 11.255947 99.84828854 11.25775242 C96.09250534 11.26217364 92.33676879 11.25923199 88.58098507 11.25586033 C85.98406115 11.25653329 83.38713729 11.25750325 80.79021358 11.2587595 C75.33927918 11.26023684 69.88836249 11.25817534 64.43743038 11.25341892 C58.12709278 11.24797633 51.81678748 11.249739 45.50645065 11.25524533 C39.44680807 11.26032214 33.38718134 11.25979492 27.32753658 11.25686359 C24.74381665 11.25619405 22.1600959 11.25702368 19.57637691 11.25934315 C15.97242164 11.26186808 12.36852937 11.25803132 8.76457882 11.25244236 C7.68505947 11.25446659 6.60554012 11.25649082 5.49330807 11.25857639 C4.51733669 11.25575657 3.54136532 11.25293674 2.53581905 11.25003147 C1.68261578 11.24965445 0.8294125 11.24927742 -0.04964542 11.24888897 C-1.98151493 11.12304783 -1.98151493 11.12304783 -2.98151493 10.12304783 C-3.07942063 8.62566659 -3.11126357 7.12361891 -3.10651493 5.62304783 C-3.10909306 4.80836033 -3.11167118 3.99367283 -3.11432743 3.15429783 C-2.93655328 0.43539902 -2.72083731 0.16895816 0 0 Z " fill="#161616" transform="translate(82.9815149307251,133.87695217132568)"/>
<path d="M0 0 C1.23750708 0.00138269 1.23750708 0.00138269 2.50001431 0.00279331 C3.44377422 0.00141865 4.38753414 0.00004398 5.35989285 -0.00137234 C6.40358028 0.00222294 7.44726772 0.00581821 8.52258205 0.00952244 C9.61512798 0.00937641 10.70767391 0.00923038 11.83332729 0.00907993 C15.46405899 0.00977961 19.09474012 0.01757454 22.72546291 0.02539158 C25.2351011 0.02725557 27.74473964 0.02867956 30.25437832 0.0296793 C36.1971526 0.03311435 42.1399105 0.0410051 48.08267635 0.05102879 C55.50982591 0.0632853 62.93697771 0.06866991 70.36413479 0.0742197 C83.6187014 0.08495972 96.87325287 0.101847 110.12780666 0.12304783 C108.8738672 4.61633092 107.70836208 8.04034611 104.12780666 11.12304783 C100.73973274 11.85065535 97.41230283 11.76463389 93.95910549 11.70654392 C92.40982105 11.71004856 92.40982105 11.71004856 90.82923794 11.713624 C87.41392459 11.71523951 83.99995979 11.68119889 80.58483791 11.64648533 C78.21640924 11.63969812 75.84797382 11.63497459 73.47953701 11.63223362 C68.51712357 11.62155167 63.55516004 11.59483697 58.59289455 11.55517673 C52.21681605 11.50422599 45.84099598 11.47915607 39.46474075 11.46424007 C33.40057027 11.44948344 27.33646126 11.42423116 21.27233791 11.39648533 C19.52484218 11.38911917 19.52484218 11.38911917 17.7420435 11.38160419 C14.46406807 11.36540581 11.18623411 11.34200407 7.90832424 11.31591892 C6.92702541 11.31165897 5.94572659 11.30739902 4.93469143 11.30300999 C4.04719707 11.29440952 3.15970272 11.28580906 2.2453146 11.27694798 C1.46975121 11.27137568 0.69418783 11.26580338 -0.10487747 11.26006222 C-1.87219334 11.12304783 -1.87219334 11.12304783 -2.87219334 10.12304783 C-2.97009903 8.62566659 -3.00194198 7.12361891 -2.99719334 5.62304783 C-2.99977146 4.80836033 -3.00234959 3.99367283 -3.00500584 3.15429783 C-2.83208303 0.50959608 -2.64900438 0.17410287 0 0 Z " fill="#191919" transform="translate(82.87219333648682,152.87695217132568)"/>
<path d="M0 0 C1.34111343 0.00539291 1.34111343 0.00539291 2.70932007 0.01089478 C3.64580887 0.01074875 4.58229767 0.01060272 5.54716492 0.01045227 C8.65845007 0.01115179 11.76967617 0.01894602 14.88095093 0.02676392 C17.0318651 0.02862796 19.18277971 0.03005192 21.33369446 0.03105164 C27.00711225 0.03487792 32.68050463 0.04470914 38.35391235 0.05575562 C44.13831234 0.06596736 49.92271641 0.07054875 55.7071228 0.07559204 C67.06585796 0.08633131 78.42457421 0.10340906 89.78329468 0.12442017 C80.36551847 9.73614623 68.32918143 13.30399606 54.99520874 13.46499634 C52.09596229 13.47564569 49.19797275 13.44857111 46.29891968 13.41738892 C44.74665745 13.4117791 43.19438984 13.40751557 41.64212036 13.40452576 C37.59791861 13.39318581 33.55405091 13.36381517 29.50997925 13.33041382 C25.36675533 13.29947595 21.22347633 13.28597025 17.08016968 13.27090454 C8.98105971 13.2389325 0.88221899 13.18787136 -7.21670532 13.12442017 C-7.24357085 11.14532619 -7.26303908 9.16613046 -7.27920532 7.18692017 C-7.29080688 6.08477173 -7.30240845 4.98262329 -7.31436157 3.84707642 C-7.13178534 -1.24314903 -4.43728013 0.00753865 0 0 Z " fill="#181818" transform="translate(87.21670532226563,171.87557983398438)"/>
<path d="M0 0 C1.23750708 0.00138269 1.23750708 0.00138269 2.50001431 0.00279331 C3.44377422 0.00141865 4.38753414 0.00004398 5.35989285 -0.00137234 C6.40358028 0.00222294 7.44726772 0.00581821 8.52258205 0.00952244 C9.61512798 0.00937641 10.70767391 0.00923038 11.83332729 0.00907993 C15.46405899 0.00977961 19.09474012 0.01757454 22.72546291 0.02539158 C25.2351011 0.02725557 27.74473964 0.02867956 30.25437832 0.0296793 C36.1971526 0.03311435 42.1399105 0.0410051 48.08267635 0.05102879 C55.50982591 0.0632853 62.93697771 0.06866991 70.36413479 0.0742197 C83.6187014 0.08495972 96.87325287 0.101847 110.12780666 0.12304783 C110.12780666 0.78304783 110.12780666 1.44304783 110.12780666 2.12304783 C103.61060929 2.96693289 97.30864714 3.23702721 90.7427969 3.14477634 C89.74661846 3.1351688 88.75044003 3.12556126 87.72407436 3.11566257 C84.46143868 3.08292337 81.19894764 3.04249705 77.93640041 3.00195408 C75.66240338 2.9776284 73.38840113 2.9537861 71.11439419 2.93040562 C65.15170214 2.86780821 59.18910338 2.79867352 53.22650051 2.72815037 C47.13309862 2.65724607 41.03963099 2.59256167 34.94616604 2.5273447 C23.00664066 2.39864648 11.06720462 2.26303789 -0.87219334 2.12304783 C-0.87219334 4.43304783 -0.87219334 6.74304783 -0.87219334 9.12304783 C33.77780666 9.12304783 68.42780666 9.12304783 104.12780666 9.12304783 C104.12780666 9.78304783 104.12780666 10.44304783 104.12780666 11.12304783 C90.32439779 11.1463784 76.52099196 11.16396137 62.71756744 11.17486 C56.30881538 11.18008949 49.90007652 11.18718833 43.49133205 11.19848728 C37.31221225 11.20931382 31.13310518 11.21532416 24.95397663 11.21792507 C22.59075056 11.21977974 20.22752522 11.22340115 17.86430454 11.22877789 C14.5667877 11.23598521 11.26932419 11.2370389 7.9718008 11.23657322 C6.9842178 11.2401685 5.99663479 11.24376377 4.97912502 11.24746799 C4.08585003 11.24609333 3.19257504 11.24471867 2.2722311 11.24330235 C1.10109312 11.24468503 1.10109312 11.24468503 -0.09370422 11.24609566 C-1.87219334 11.12304783 -1.87219334 11.12304783 -2.87219334 10.12304783 C-2.97009903 8.62566659 -3.00194198 7.12361891 -2.99719334 5.62304783 C-2.99977146 4.80836033 -3.00234959 3.99367283 -3.00500584 3.15429783 C-2.83208303 0.50959608 -2.64900438 0.17410287 0 0 Z " fill="#111111" transform="translate(82.87219333648682,152.87695217132568)"/>
<path d="M0 0 C0.66 0.33 1.32 0.66 2 1 C1.96519531 1.94101563 1.93039062 2.88203125 1.89453125 3.8515625 C1.86746094 5.09679687 1.84039062 6.34203125 1.8125 7.625 C1.77769531 8.85476562 1.74289062 10.08453125 1.70703125 11.3515625 C2.14378597 16.79061464 4.11165636 20.29681558 8 24 C8 24.66 8 25.32 8 26 C9.0725 25.690625 10.145 25.38125 11.25 25.0625 C13.82866222 24.33187904 16.39512102 23.62517096 19 23 C19 23.99 19 24.98 19 26 C18.34 26 17.68 26 17 26 C16.75636719 26.64066406 16.51273437 27.28132813 16.26171875 27.94140625 C15 30 15 30 13.08203125 30.71484375 C7.57148166 31.25546565 3.8906044 30.95281775 -1 28 C-5.58527678 23.61546114 -8.76363508 19.48183167 -9.375 13.0625 C-9.29267724 9.90483402 -8.97145344 8.95310208 -7.25 6.125 C-5.18548797 4.17518309 -3.55559827 3.14561302 -1 2 C-0.67 1.34 -0.34 0.68 0 0 Z " fill="#EEEDED" transform="translate(401,110)"/>
<path d="M0 0 C1.32 0 2.64 0 4 0 C4.99 4.62 5.98 9.24 7 14 C8.32 9.38 9.64 4.76 11 0 C12.32 0 13.64 0 15 0 C15.508783 1.55966218 16.00663469 3.12289241 16.5 4.6875 C16.7784375 5.55761719 17.056875 6.42773438 17.34375 7.32421875 C17.99850805 9.99391677 18.11831495 12.26396684 18 15 C18.66 15 19.32 15 20 15 C20.09087891 14.00419922 20.09087891 14.00419922 20.18359375 12.98828125 C21.01581722 4.21792619 21.01581722 4.21792619 22 0 C23.32 0 24.64 0 26 0 C24.81034913 7.36571071 23.51922091 14.69481007 22 22 C20.35 22.33 18.7 22.66 17 23 C16.49363393 21.25183142 15.99515381 19.50137737 15.5 17.75 C15.2215625 16.77546875 14.943125 15.8009375 14.65625 14.796875 C14 12 14 12 14 8 C13.34 8 12.68 8 12 8 C11.95101562 8.58007812 11.90203125 9.16015625 11.8515625 9.7578125 C11.40350595 14.43923092 10.701979 18.57485459 9 23 C7.68 23 6.36 23 5 23 C4.34964629 20.48025747 3.70462507 17.95934065 3.0625 15.4375 C2.88009766 14.73302734 2.69769531 14.02855469 2.50976562 13.30273438 C1.3884486 8.87862902 0.56543671 4.52944562 0 0 Z " fill="#101010" transform="translate(502,202)"/>
<path d="M0 0 C22.44 0 44.88 0 68 0 C68 1.32 68 2.64 68 4 C45.56 4 23.12 4 0 4 C0 2.68 0 1.36 0 0 Z " fill="#131313" transform="translate(94,211)"/>
<path d="M0 0 C22.44 0 44.88 0 68 0 C68 1.32 68 2.64 68 4 C45.56 4 23.12 4 0 4 C0 2.68 0 1.36 0 0 Z " fill="#121212" transform="translate(536,211)"/>
<path d="M0 0 C1.32 0 2.64 0 4 0 C5.65 4.29 7.3 8.58 9 13 C9.721875 11.040625 10.44375 9.08125 11.1875 7.0625 C12.41796875 3.72265625 12.41796875 3.72265625 14 1 C15.65 0.67 17.3 0.34 19 0 C19 7.59 19 15.18 19 23 C17.68 22.67 16.36 22.34 15 22 C14.67 18.7 14.34 15.4 14 12 C12.68 14.97 11.36 17.94 10 21 C9.34 21 8.68 21 8 21 C6.68 17.7 5.36 14.4 4 11 C3.67 14.96 3.34 18.92 3 23 C2.01 23 1.02 23 0 23 C0 15.41 0 7.82 0 0 Z " fill="#0A0A0A" transform="translate(396,202)"/>
<path d="M0 0 C5 1 5 1 7.01953125 3.72265625 C7.90705078 5.37587891 7.90705078 5.37587891 8.8125 7.0625 C9.41707031 8.16722656 10.02164062 9.27195313 10.64453125 10.41015625 C11.09183594 11.26480469 11.53914063 12.11945313 12 13 C12.33 8.71 12.66 4.42 13 0 C14.32 0 15.64 0 17 0 C17 7.59 17 15.18 17 23 C12 22 12 22 9.98046875 19.27734375 C9.38878906 18.17519531 8.79710937 17.07304687 8.1875 15.9375 C7.58292969 14.83277344 6.97835938 13.72804687 6.35546875 12.58984375 C5.90816406 11.73519531 5.46085937 10.88054687 5 10 C4.67 13.96 4.34 17.92 4 22 C2.68 22.33 1.36 22.66 0 23 C0 15.41 0 7.82 0 0 Z " fill="#0C0C0C" transform="translate(306,202)"/>
<path d="M0 0 C5 1 5 1 7.01953125 3.72265625 C7.90705078 5.37587891 7.90705078 5.37587891 8.8125 7.0625 C9.41707031 8.16722656 10.02164063 9.27195313 10.64453125 10.41015625 C11.09183594 11.26480469 11.53914062 12.11945313 12 13 C12.33 8.71 12.66 4.42 13 0 C14.32 0 15.64 0 17 0 C17 7.59 17 15.18 17 23 C12 22 12 22 9.76171875 18.83984375 C9.05306746 17.54837644 8.36212376 16.24706376 7.6875 14.9375 C7.32849609 14.27427734 6.96949219 13.61105469 6.59960938 12.92773438 C5.71774023 11.29333689 4.85679406 9.64768088 4 8 C3.67 12.95 3.34 17.9 3 23 C2.01 23 1.02 23 0 23 C0 15.41 0 7.82 0 0 Z " fill="#0E0E0E" transform="translate(179,202)"/>
<path d="M0 0 C1.32 0 2.64 0 4 0 C5.62772798 2.16238316 6.93663803 4.16026997 8.25 6.5 C8.79527344 7.43005859 8.79527344 7.43005859 9.3515625 8.37890625 C10.24760591 9.91161208 11.12555747 11.45486854 12 13 C12.33 8.71 12.66 4.42 13 0 C14.32 0 15.64 0 17 0 C17 7.26 17 14.52 17 22 C15.68 22.33 14.36 22.66 13 23 C11.68647829 20.87562549 10.37414287 18.75053408 9.0625 16.625 C8.68931641 16.02171875 8.31613281 15.4184375 7.93164062 14.796875 C5.11328125 10.2265625 5.11328125 10.2265625 4 8 C3.67 12.95 3.34 17.9 3 23 C2.01 23 1.02 23 0 23 C0 15.41 0 7.82 0 0 Z " fill="#121212" transform="translate(201,202)"/>
<path d="M0 0 C11.33429395 -0.49279539 11.33429395 -0.49279539 14.40625 1.78125 C16 4 16 4 15.75 7.75 C15.5025 8.8225 15.255 9.895 15 11 C14.01 11.33 13.02 11.66 12 12 C12.28875 12.54269531 12.5775 13.08539063 12.875 13.64453125 C13.431875 14.71767578 13.431875 14.71767578 14 15.8125 C14.556875 16.87404297 14.556875 16.87404297 15.125 17.95703125 C16 20 16 20 16 23 C13.33409919 22.63775446 12.28184981 22.37047681 10.62109375 20.1875 C10.23050781 19.465625 9.83992188 18.74375 9.4375 18 C7.63369154 14.51384626 7.63369154 14.51384626 4 13 C4 16.3 4 19.6 4 23 C2.68 23 1.36 23 0 23 C0 15.41 0 7.82 0 0 Z M4 3 C4 5.31 4 7.62 4 10 C8.14093698 10.20970559 8.14093698 10.20970559 12 9 C12.042721 7.33388095 12.04063832 5.66617115 12 4 C10.81575674 2.58422523 10.81575674 2.58422523 7.4375 2.9375 C5.7359375 2.9684375 5.7359375 2.9684375 4 3 Z " fill="#0F0F0F" transform="translate(462,202)"/>
<path d="M0 0 C3.25537339 2.74136706 4.27418503 5.28339397 4.9375 9.375 C5.2740571 14.06331871 4.32260241 16.93544579 2 21 C-1.66908557 23.44605705 -4.73618769 23.83946402 -9 23 C-12.28862106 20.34111489 -14.73299555 18.12077821 -15.2734375 13.828125 C-15.58145128 6.00931374 -15.58145128 6.00931374 -12.6875 2.4375 C-8.39876693 -1.45228115 -5.4972525 -1.35020237 0 0 Z M-9.875 4.4375 C-11.56696458 8.29141933 -11.68208814 11.86199861 -11 16 C-9.51707157 18.73637301 -9.51707157 18.73637301 -7 20 C-3.86045016 20 -2.52058711 19.46673327 -0.1875 17.375 C1.47603223 14.04793553 1.38708602 11.67731723 1 8 C0.06150487 5.01658383 0.06150487 5.01658383 -2 3 C-5.39300326 2.36381189 -7.09922402 2.30940508 -9.875 4.4375 Z " fill="#0D0D0D" transform="translate(434,202)"/>
<path d="M0 0 C3.27935236 2.76155988 4.27736213 5.31684995 4.9375 9.4375 C5.24401398 13.72156754 4.41688107 16.3746784 2 20 C1.608125 20.61875 1.21625 21.2375 0.8125 21.875 C-2.27336427 23.79036403 -5.5413393 23.62026664 -9 23 C-12.44312714 20.8755173 -13.71617547 19.85147359 -15 16 C-15.40403073 11.41580521 -15.51879592 7.31064232 -13.8125 3 C-9.75848937 -1.47339104 -5.66024577 -1.54370339 0 0 Z M-11 6 C-11.84991862 10.5864978 -11.8112747 14.70796992 -9.3125 18.6875 C-7.07149707 20.20006763 -7.07149707 20.20006763 -4.4375 20.0625 C-1.15506655 18.63169568 -0.38345377 17.27660103 1 14 C1.43904317 10.48765465 1.16531607 8.42247439 -0.125 5.125 C-1.86947609 2.69755917 -1.86947609 2.69755917 -5 2.5 C-8.31065433 3.05177572 -9.03257354 3.39014857 -11 6 Z " fill="#101011" transform="translate(496,202)"/>
<path d="M0 0 C3.27935236 2.76155988 4.27736213 5.31684995 4.9375 9.4375 C5.24401398 13.72156754 4.41688107 16.3746784 2 20 C1.608125 20.61875 1.21625 21.2375 0.8125 21.875 C-2.27336427 23.79036403 -5.5413393 23.62026664 -9 23 C-12.44312714 20.8755173 -13.71617547 19.85147359 -15 16 C-15.40403073 11.41580521 -15.51879592 7.31064232 -13.8125 3 C-9.75848937 -1.47339104 -5.66024577 -1.54370339 0 0 Z M-11 6 C-11.84991862 10.5864978 -11.8112747 14.70796992 -9.3125 18.6875 C-7.07149707 20.20006763 -7.07149707 20.20006763 -4.4375 20.0625 C-1.15506655 18.63169568 -0.38345377 17.27660103 1 14 C1.43904317 10.48765465 1.16531607 8.42247439 -0.125 5.125 C-1.86947609 2.69755917 -1.86947609 2.69755917 -5 2.5 C-8.31065433 3.05177572 -9.03257354 3.39014857 -11 6 Z " fill="#0D0D0D" transform="translate(387,202)"/>
<path d="M0 0 C3.03677372 2.54432393 4.844575 4.41772257 5.23828125 8.42578125 C5.43987889 16.26686851 5.43987889 16.26686851 3.125 20.125 C0.36639152 22.55906631 -0.58992231 22.96131343 -4.3125 23.3125 C-8.73769281 22.93748366 -10.12368311 22.36939978 -13 19 C-14.81388395 14.52575292 -15.14329574 10.88843361 -14.375 6.125 C-12.94120635 2.86637806 -12.08161865 1.6808829 -9 0 C-5.41563853 -1.19478716 -3.63093708 -0.96330984 0 0 Z M-8.75 4 C-10.70788326 7.13261321 -11.11302682 10.37607773 -11 14 C-10.06150487 16.98341617 -10.06150487 16.98341617 -8 19 C-5.61391389 20.24401278 -5.61391389 20.24401278 -3 20 C-0.4631891 18.8017483 -0.4631891 18.8017483 1 16 C1.49871672 12.6087263 1.62565263 9.37626958 1 6 C-0.82144164 3.62849337 -1.50337607 3.07449359 -4.5 2.625 C-6.9663956 2.84079435 -6.9663956 2.84079435 -8.75 4 Z " fill="#0D0D0D" transform="translate(236,202)"/>
<path d="M0 0 C1.375 2.0625 1.375 2.0625 2 4 C1.01 4.495 1.01 4.495 0 5 C-0.66 4.67 -1.32 4.34 -2 4 C-5 3.66666667 -5 3.66666667 -8 4 C-10.06520632 7.09780948 -10.29477024 7.9540481 -10.3125 11.5 C-10.32925781 12.2734375 -10.34601563 13.046875 -10.36328125 13.84375 C-9.91303325 16.51618974 -9.15119714 17.39424858 -7 19 C-4.37429296 19.25069913 -4.37429296 19.25069913 -2 19 C-1.67 17.35 -1.34 15.7 -1 14 C-2.65 14 -4.3 14 -6 14 C-6 12.68 -6 11.36 -6 10 C-3.36 10 -0.72 10 2 10 C2.08086147 11.79093191 2.13912702 13.58289628 2.1875 15.375 C2.23970703 16.87160156 2.23970703 16.87160156 2.29296875 18.3984375 C2.14794922 19.68621094 2.14794922 19.68621094 2 21 C-1.68497796 23.45665197 -4.71971786 23.70086491 -9 23 C-11.8100346 21.20636089 -13.50940468 19.98119065 -15 17 C-15.50153947 12.61511208 -15.98198224 8.03466721 -14.0234375 3.9765625 C-12.31258388 1.82487544 -10.5417593 0.2621416 -8.0625 -0.9375 C-5.16754811 -1.02522581 -2.79563559 -0.79007093 0 0 Z " fill="#121212" transform="translate(342,202)"/>
<path d="M0 0 C11.46693984 -0.36990129 11.46693984 -0.36990129 13.86328125 1.29296875 C15.77103468 4.15787682 15.35598841 6.67744148 15 10 C13.5 11.9375 13.5 11.9375 12 13 C12.433125 14.0828125 12.433125 14.0828125 12.875 15.1875 C13.91666667 17.79166667 14.95833333 20.39583333 16 23 C13.75 22.9375 13.75 22.9375 11 22 C8.9101187 19.34257905 7 16.46449449 7 13 C5.68 13 4.36 13 3 13 C3 16.3 3 19.6 3 23 C2.01 23 1.02 23 0 23 C0 15.41 0 7.82 0 0 Z M3 3 C3 5.31 3 7.62 3 10 C5.31 10 7.62 10 10 10 C10.66 8.68 11.32 7.36 12 6 C11.34 5.01 10.68 4.02 10 3 C6.41642759 2.74984127 6.41642759 2.74984127 3 3 Z " fill="#0D0D0D" transform="translate(443,202)"/>
<path d="M0 0 C1.65 0 3.3 0 5 0 C6.17430074 3.2681432 7.33811256 6.53992515 8.5 9.8125 C9.00080078 11.2056543 9.00080078 11.2056543 9.51171875 12.62695312 C9.82753906 13.51962891 10.14335937 14.41230469 10.46875 15.33203125 C10.76201172 16.15421143 11.05527344 16.9763916 11.35742188 17.82348633 C12 20 12 20 12 23 C10.68 23 9.36 23 8 23 C7.34 21.02 6.68 19.04 6 17 C3.69 17 1.38 17 -1 17 C-1.66 18.98 -2.32 20.96 -3 23 C-4.32 23 -5.64 23 -7 23 C-6.33654156 17.74272175 -4.74419696 13.07140932 -2.9375 8.125 C-2.65583984 7.34125 -2.37417969 6.5575 -2.08398438 5.75 C-1.39386218 3.83169424 -0.69755684 1.91561481 0 0 Z M2 4 C1.34 6.97 0.68 9.94 0 13 C1.65 13 3.3 13 5 13 C4.34 10.03 3.68 7.06 3 4 C2.67 4 2.34 4 2 4 Z " fill="#0E0E0E" transform="translate(266,202)"/>
<path d="M0 0 C1.0828125 1.2065625 1.0828125 1.2065625 2.1875 2.4375 C5.60831632 5.56337826 5.60831632 5.56337826 10 6 C12.13885261 5.30631807 14.17515912 4.50547435 16.23046875 3.59375 C16.81441406 3.3978125 17.39835937 3.201875 18 3 C18.66 3.33 19.32 3.66 20 4 C19.70166446 7.31611429 19.31375283 8.6943815 16.890625 11.0546875 C16.01921875 11.65539062 15.1478125 12.25609375 14.25 12.875 C13.38890625 13.49117187 12.5278125 14.10734375 11.640625 14.7421875 C9 16 9 16 6.41015625 16.04296875 C3.02786581 14.57931957 2.03260993 12.58504047 0.1875 9.4375 C-0.41707031 8.42558594 -1.02164062 7.41367188 -1.64453125 6.37109375 C-2.09183594 5.58863281 -2.53914063 4.80617187 -3 4 C-2.34 4 -1.68 4 -1 4 C-0.67 2.68 -0.34 1.36 0 0 Z " fill="#E8E3E4" transform="translate(379,144)"/>
<path d="M0 0 C1.32 0 2.64 0 4 0 C5.65 5.28 7.3 10.56 9 16 C10.65 10.72 12.3 5.44 14 0 C15.32 0 16.64 0 18 0 C16.48526781 7.98676972 13.83197448 15.40122878 11 23 C9.68 23 8.36 23 7 23 C5.82847622 19.54329268 4.66360923 16.08437878 3.5 12.625 C3.16613281 11.64015625 2.83226562 10.6553125 2.48828125 9.640625 C2.17246094 8.69960937 1.85664063 7.75859375 1.53125 6.7890625 C1.23798828 5.91975098 0.94472656 5.05043945 0.64257812 4.15478516 C0 2 0 2 0 0 Z " fill="#0C0C0C" transform="translate(242,202)"/>
<path d="M0 0 C0.66 0 1.32 0 2 0 C2.226875 0.639375 2.45375 1.27875 2.6875 1.9375 C3.85250896 4.27193661 3.85250896 4.27193661 6.625 4.75 C7.40875 4.8325 8.1925 4.915 9 5 C9.33 5.99 9.66 6.98 10 8 C11.98 8 13.96 8 16 8 C16.33 8.99 16.66 9.98 17 11 C18.0725 10.690625 19.145 10.38125 20.25 10.0625 C22.82866222 9.33187904 25.39512102 8.62517096 28 8 C28 8.99 28 9.98 28 11 C27.34 11 26.68 11 26 11 C25.75636719 11.64066406 25.51273437 12.28132812 25.26171875 12.94140625 C24 15 24 15 22.08203125 15.71484375 C16.57148166 16.25546565 12.8906044 15.95281775 8 13 C3.86011483 9.21305434 1.3470957 5.52309238 0 0 Z " fill="#E9E7E9" transform="translate(392,125)"/>
<path d="M0 0 C5.61 0 11.22 0 17 0 C17 0.99 17 1.98 17 3 C14.69 3 12.38 3 10 3 C10 9.6 10 16.2 10 23 C8.68 23 7.36 23 6 23 C6 16.4 6 9.8 6 3 C4.02 3 2.04 3 0 3 C0 2.01 0 1.02 0 0 Z " fill="#131313" transform="translate(354,202)"/>
<path d="M0 0 C5.61 0 11.22 0 17 0 C17 0.99 17 1.98 17 3 C14.69 3 12.38 3 10 3 C10 9.6 10 16.2 10 23 C9.01 23 8.02 23 7 23 C7 16.4 7 9.8 7 3 C4.69 3 2.38 3 0 3 C0 2.01 0 1.02 0 0 Z " fill="#111111" transform="translate(277,202)"/>
<path d="M0 0 C16.5 0 33 0 50 0 C48 2 48 2 45.97518921 2.24050903 C45.14468048 2.23606781 44.31417175 2.23162659 43.45849609 2.22705078 C42.51767181 2.22689972 41.57684753 2.22674866 40.60751343 2.22659302 C39.58976837 2.21627045 38.57202332 2.20594788 37.5234375 2.1953125 C36.48305328 2.1924826 35.44266907 2.18965271 34.37075806 2.18673706 C31.03872306 2.17551704 27.70695414 2.15040915 24.375 2.125 C22.11979554 2.11497256 19.86458688 2.1058463 17.609375 2.09765625 C12.07282546 2.07557178 6.53643173 2.04207639 1 2 C0.67 2.66 0.34 3.32 0 4 C0 2.68 0 1.36 0 0 Z " fill="#111112" transform="translate(241,141)"/>
<path d="M0 0 C1.32 0 2.64 0 4 0 C4 7.59 4 15.18 4 23 C2.68 23 1.36 23 0 23 C0 15.41 0 7.82 0 0 Z " fill="#111111" transform="translate(297,202)"/>
<path d="M0 0 C1.32 0 2.64 0 4 0 C4 7.59 4 15.18 4 23 C2.68 23 1.36 23 0 23 C0 15.41 0 7.82 0 0 Z " fill="#121212" transform="translate(170,202)"/>
<path d="M0 0 C1.375 2.0625 1.375 2.0625 2 4 C1.01 4.495 1.01 4.495 0 5 C-0.66 4.67 -1.32 4.34 -2 4 C-5 3.66666667 -5 3.66666667 -8 4 C-10.20914 7.31371 -10.22481553 8.3446021 -10.125 12.1875 C-10.10695313 13.08855469 -10.08890625 13.98960937 -10.0703125 14.91796875 C-10.04710937 15.60503906 -10.02390625 16.29210937 -10 17 C-10.66 17 -11.32 17 -12 17 C-12.33 15.02 -12.66 13.04 -13 11 C-13.66 12.32 -14.32 13.64 -15 15 C-15.47297836 10.27021642 -15.83439337 6.3672822 -12.75 2.5 C-8.43517458 -1.42256856 -5.63390848 -1.59219153 0 0 Z " fill="#0B0B0B" transform="translate(342,202)"/>
<path d="M0 0 C0.66 0 1.32 0 2 0 C2.90249856 5.14089921 2.97986395 9.69726374 2.5625 14.9375 C2.51029297 15.62134766 2.45808594 16.30519531 2.40429688 17.00976562 C2.27630102 18.67371169 2.13912281 20.3369473 2 22 C1.01 22 0.02 22 -1 22 C-1.02726927 19.64575325 -1.04696719 17.29183038 -1.0625 14.9375 C-1.07990234 12.97103516 -1.07990234 12.97103516 -1.09765625 10.96484375 C-1.00452335 7.1836481 -0.61448726 3.72079293 0 0 Z " fill="#0E0E0E" transform="translate(397,203)"/>
<path d="M0 0 C1.32 0 2.64 0 4 0 C4 7.26 4 14.52 4 22 C2.68 22.33 1.36 22.66 0 23 C-0.99 21.35 -1.98 19.7 -3 18 C-2.01 18.33 -1.02 18.66 0 19 C0 19.66 0 20.32 0 21 C0.66 21 1.32 21 2 21 C1.34 19.35 0.68 17.7 0 16 C0.33 15.67 0.66 15.34 1 15 C1.0991757 12.85605481 1.1297015 10.70873268 1.125 8.5625 C1.12886719 6.80099609 1.12886719 6.80099609 1.1328125 5.00390625 C1.20765546 2.0759191 1.20765546 2.0759191 0 0 Z " fill="#090909" transform="translate(214,202)"/>
<path d="M0 0 C0.99 0 1.98 0 3 0 C5.60758587 7.15533979 6.38999191 13.40237976 6 21 C7.32 21.33 8.64 21.66 10 22 C8.35 22.33 6.7 22.66 5 23 C3.68 17.72 2.36 12.44 1 7 C1.66 7 2.32 7 3 7 C2.65772428 4.02934491 2.65772428 4.02934491 2 1 C1.34 0.67 0.68 0.34 0 0 Z " fill="#0A0A0A" transform="translate(514,202)"/>
<path d="M0 0 C0.65880661 0.00424484 1.31761322 0.00848969 1.99638367 0.01286316 C4.0852576 0.02955679 6.17314014 0.06718817 8.26171875 0.10546875 C9.68423078 0.12052778 11.10675805 0.13421406 12.52929688 0.14648438 C16.00292226 0.17942872 19.47597362 0.23114467 22.94921875 0.29296875 C22.94921875 0.62296875 22.94921875 0.95296875 22.94921875 1.29296875 C13.37921875 1.29296875 3.80921875 1.29296875 -6.05078125 1.29296875 C-6.05078125 2.61296875 -6.05078125 3.93296875 -6.05078125 5.29296875 C-8.03078125 6.28296875 -8.03078125 6.28296875 -10.05078125 7.29296875 C-10.05078125 6.30296875 -10.05078125 5.31296875 -10.05078125 4.29296875 C-10.71078125 3.96296875 -11.37078125 3.63296875 -12.05078125 3.29296875 C-7.92374412 0.32355697 -5.03962963 -0.0643357 0 0 Z " fill="#2C2B2C" transform="translate(409.05078125,143.70703125)"/>
<path d="M0 0 C2.31 0 4.62 0 7 0 C2.86240998 4.82718836 -2.0246672 7.80593249 -8 10 C-10.8125 10.13671875 -10.8125 10.13671875 -13 10 C-13.33 9.01 -13.66 8.02 -14 7 C-13.34 7 -12.68 7 -12 7 C-12 7.66 -12 8.32 -12 9 C-11.46890625 8.73445312 -10.9378125 8.46890625 -10.390625 8.1953125 C-6.92708333 6.46354167 -3.46354167 4.73177083 0 3 C0 2.01 0 1.02 0 0 Z " fill="#111111" transform="translate(170,172)"/>
<path d="M0 0 C2.5 2.25 2.5 2.25 5 5 C5 6.32 5 7.64 5 9 C4.01 9.99 3.02 10.98 2 12 C-0.475 8.04 -0.475 8.04 -3 4 C-2.34 4 -1.68 4 -1 4 C-0.67 2.68 -0.34 1.36 0 0 Z " fill="#ADA6AC" transform="translate(379,144)"/>
<path d="M0 0 C1.32 0 2.64 0 4 0 C4 1.98 4 3.96 4 6 C3.34 6 2.68 6 2 6 C2.185625 7.155 2.37125 8.31 2.5625 9.5 C3.1235724 13.86389648 2.69632186 17.66733065 2 22 C1.67 22 1.34 22 1 22 C-0.17402193 14.66236293 -0.09377123 7.41834582 0 0 Z " fill="#151515" transform="translate(306,202)"/>
<path d="M0 0 C0.99 1.32 1.98 2.64 3 4 C1.25 6.0625 1.25 6.0625 -1 8 C-4.01811422 7.82246387 -4.83735215 7.16264785 -7 5 C-4.53846154 1.18461538 -4.53846154 1.18461538 -1.8125 0.25 C-1.214375 0.1675 -0.61625 0.085 0 0 Z " fill="#EEEAEB" transform="translate(389,150)"/>
<path d="M0 0 C0.99 0.33 1.98 0.66 3 1 C2.67 4.3 2.34 7.6 2 11 C2.99 11.33 3.98 11.66 5 12 C4.01 12 3.02 12 2 12 C2 14.64 2 17.28 2 20 C1.34 20 0.68 20 0 20 C0 13.4 0 6.8 0 0 Z " fill="#151515" transform="translate(444,203)"/>
<path d="M0 0 C0.66 0.33 1.32 0.66 2 1 C1.67 2.65 1.34 4.3 1 6 C-0.65 6 -2.3 6 -4 6 C-4 6.99 -4 7.98 -4 9 C-6.5 11.1875 -6.5 11.1875 -9 13 C-8.58286812 8.1334614 -6.54534674 6.20769467 -3 3 C-2.401875 2.401875 -1.80375 1.80375 -1.1875 1.1875 C-0.795625 0.795625 -0.40375 0.40375 0 0 Z " fill="#DCD9DA" transform="translate(401,110)"/>
<path d="M0 0 C5.61 0 11.22 0 17 0 C17 0.99 17 1.98 17 3 C16.21753906 2.91621094 15.43507813 2.83242187 14.62890625 2.74609375 C13.11103516 2.59333984 13.11103516 2.59333984 11.5625 2.4375 C10.55316406 2.33308594 9.54382813 2.22867188 8.50390625 2.12109375 C7.67761719 2.08113281 6.85132813 2.04117188 6 2 C5.67 2.33 5.34 2.66 5 3 C3.33382885 3.04063832 1.66611905 3.042721 0 3 C0 2.01 0 1.02 0 0 Z " fill="#0D0D0D" transform="translate(354,202)"/>
<path d="M0 0 C0.99 0.33 1.98 0.66 3 1 C3.09706112 7.11485027 2.77040851 12.93303301 2 19 C-1.26584771 15.73415229 -0.85354675 11.46682424 -1 7 C-0.82187913 4.5953682 -0.46405851 2.37185459 0 0 Z " fill="#191919" transform="translate(464,204)"/>
<path d="M0 0 C2.25 0.25 2.25 0.25 4 1 C3.67 1.66 3.34 2.32 3 3 C2.34 3 1.68 3 1 3 C0.835 3.639375 0.67 4.27875 0.5 4.9375 C-1 7 -1 7 -2.9140625 7.48828125 C-4.93575155 7.7275978 -6.96841939 7.86893028 -9 8 C-7.88625 7.13375 -7.88625 7.13375 -6.75 6.25 C-3.99447116 4.11492293 -3.99447116 4.11492293 -1.9375 1.6875 C-1.298125 1.130625 -0.65875 0.57375 0 0 Z " fill="#A3979F" transform="translate(417,133)"/>
<path d="M0 0 C0.66 0 1.32 0 2 0 C2.84454356 3.37817425 3.10844919 5.67465243 2 9 C0.68 9 -0.64 9 -2 9 C-2.33 7.02 -2.66 5.04 -3 3 C-2.01 3 -1.02 3 0 3 C0 2.01 0 1.02 0 0 Z " fill="#141414" transform="translate(522,214)"/>
<path d="M0 0 C1.32 0 2.64 0 4 0 C4.125 2.875 4.125 2.875 4 6 C3.34 6.66 2.68 7.32 2 8 C1.01 7.34 0.02 6.68 -1 6 C-0.67 4.02 -0.34 2.04 0 0 Z " fill="#141414" transform="translate(411,202)"/>
<path d="M0 0 C1.485 0.99 1.485 0.99 3 2 C4.32 2 5.64 2 7 2 C6.67 3.65 6.34 5.3 6 7 C4.68 7 3.36 7 2 7 C1.34 4.69 0.68 2.38 0 0 Z " fill="#121212" transform="translate(248,216)"/>
<path d="M0 0 C2 3 2 3 2 7 C1.34 7 0.68 7 0 7 C-0.66 8.32 -1.32 9.64 -2 11 C-2.99 11 -3.98 11 -5 11 C-4.360625 10.113125 -3.72125 9.22625 -3.0625 8.3125 C-1.19170243 5.30788572 -0.40576034 3.4489629 0 0 Z " fill="#141414" transform="translate(239,211)"/>
<path d="M0 0 C0.99 0 1.98 0 3 0 C2.67 4.29 2.34 8.58 2 13 C0 11 0 11 -0.1953125 8.3984375 C-0.17210937 7.40070313 -0.14890625 6.40296875 -0.125 5.375 C-0.10695312 4.37210938 -0.08890625 3.36921875 -0.0703125 2.3359375 C-0.04710937 1.56507813 -0.02390625 0.79421875 0 0 Z " fill="#121212" transform="translate(192,203)"/>
<path d="M0 0 C1.32 0 2.64 0 4 0 C4.33 1.65 4.66 3.3 5 5 C3.02 5.99 3.02 5.99 1 7 C0.67 4.69 0.34 2.38 0 0 Z " fill="#171717" transform="translate(201,202)"/>
<path d="M0 0 C1.125 1.75 1.125 1.75 2 4 C1.25 5.875 1.25 5.875 0 8 C-0.68960962 9.99220557 -1.36079057 11.99105606 -2 14 C-2.66 13.67 -3.32 13.34 -4 13 C-3.52511102 11.01980257 -3.04497141 9.04086365 -2.5625 7.0625 C-2.29566406 5.96035156 -2.02882813 4.85820313 -1.75390625 3.72265625 C-1 1 -1 1 0 0 Z " fill="#0F0F0F" transform="translate(354,118)"/>
<path d="M0 0 C2 1.75 2 1.75 4 4 C4 5.32 4 6.64 4 8 C3.01 8 2.02 8 1 8 C0.34 5.69 -0.32 3.38 -1 1 C-0.67 0.67 -0.34 0.34 0 0 Z " fill="#0F0F0F" transform="translate(402,213)"/>
<path d="M0 0 C0.66 1.32 1.32 2.64 2 4 C1.34 4 0.68 4 0 4 C0.33 6.64 0.66 9.28 1 12 C0.67 11.34 0.34 10.68 0 10 C-0.66 10 -1.32 10 -2 10 C-2.25 3.375 -2.25 3.375 0 0 Z " fill="#161616" transform="translate(374,207)"/>
<path d="M0 0 C0.99 0.33 1.98 0.66 3 1 C3 1.99 3 2.98 3 4 C4.32 4.33 5.64 4.66 7 5 C7 5.99 7 6.98 7 8 C5.1875 7.8125 5.1875 7.8125 3 7 C0 2.82142857 0 2.82142857 0 0 Z " fill="#F9F7F9" transform="translate(399,126)"/>
<path d="M0 0 C1.32 0.66 2.64 1.32 4 2 C4 3.32 4 4.64 4 6 C2.35 5.67 0.7 5.34 -1 5 C-0.67 3.35 -0.34 1.7 0 0 Z " fill="#111111" transform="translate(192,219)"/>
<path d="M0 0 C2.64 0.33 5.28 0.66 8 1 C8 1.99 8 2.98 8 4 C4.28400809 4.20086443 3.22791555 4.1519437 0 2 C0 1.34 0 0.68 0 0 Z " fill="#101010" transform="translate(450,75)"/>
<path d="M0 0 C1.98 0 3.96 0 6 0 C6 1.32 6 2.64 6 4 C3.03 3.505 3.03 3.505 0 3 C0 2.01 0 1.02 0 0 Z " fill="#181818" transform="translate(336,213)"/>
<path d="M0 0 C0.66 0.66 1.32 1.32 2 2 C2.66 1.34 3.32 0.68 4 0 C3.34 2.97 2.68 5.94 2 9 C1.67 8.34 1.34 7.68 1 7 C0.34 7 -0.32 7 -1 7 C-0.67 4.69 -0.34 2.38 0 0 Z " fill="#090909" transform="translate(523,207)"/>
<path d="M0 0 C2.0625 0.4375 2.0625 0.4375 4 1 C1.8509432 3.47141532 0.31120491 4.69898137 -3 5 C-5.25 4.0625 -5.25 4.0625 -7 3 C-5.5459375 2.5359375 -5.5459375 2.5359375 -4.0625 2.0625 C-1.15934208 1.30476658 -1.15934208 1.30476658 0 0 Z " fill="#C4B7C0" transform="translate(410,136)"/>
<path d="M0 0 C0.66 0.33 1.32 0.66 2 1 C1.67 2.65 1.34 4.3 1 6 C-1.97 5.505 -1.97 5.505 -5 5 C-3.35 3.35 -1.7 1.7 0 0 Z " fill="#878386" transform="translate(401,110)"/>
<path d="M0 0 C0.66 0 1.32 0 2 0 C2.33 2.31 2.66 4.62 3 7 C2.01 7 1.02 7 0 7 C0 4.69 0 2.38 0 0 Z " fill="#171717" transform="translate(397,203)"/>
<path d="M0 0 C1.65 0 3.3 0 5 0 C4.67 0.66 4.34 1.32 4 2 C3.01 1.67 2.02 1.34 1 1 C1.33 2.98 1.66 4.96 2 7 C1.01 7 0.02 7 -1 7 C-0.67 4.69 -0.34 2.38 0 0 Z " fill="#050505" transform="translate(266,202)"/>
<path d="M0 0 C0 0.33 0 0.66 0 1 C-0.93972656 0.98259766 -0.93972656 0.98259766 -1.8984375 0.96484375 C-3.12433594 0.95130859 -3.12433594 0.95130859 -4.375 0.9375 C-5.59316406 0.92009766 -5.59316406 0.92009766 -6.8359375 0.90234375 C-9.04937142 0.85533666 -9.04937142 0.85533666 -11 2 C-10.67 1.01 -10.34 0.02 -10 -1 C-6.36375521 -2.75078453 -3.58607386 -1.38552854 0 0 Z " fill="#141415" transform="translate(387,204)"/>
<path d="M0 0 C1.32 0 2.64 0 4 0 C3.67 1.98 3.34 3.96 3 6 C2.01 6 1.02 6 0 6 C-1 3 -1 3 0 0 Z " fill="#060606" transform="translate(256,202)"/>
<path d="M0 0 C3.53790403 3.69172595 3.59115883 7.09390595 4 12 C2 11 2 11 0.875 8.25 C0.08026605 5.29813104 -0.17810598 3.02780163 0 0 Z " fill="#131313" transform="translate(307,114)"/>
<path d="M0 0 C3.0916909 2.52956528 3.90931332 5.22454612 5 9 C2.5 7.875 2.5 7.875 0 6 C-0.3125 2.8125 -0.3125 2.8125 0 0 Z " fill="#171717" transform="translate(420,214)"/>
<path d="M0 0 C0.99 0.33 1.98 0.66 3 1 C3 4.3 3 7.6 3 11 C2.67 11 2.34 11 2 11 C2 9.02 2 7.04 2 5 C1.34 5 0.68 5 0 5 C0 3.35 0 1.7 0 0 Z " fill="#0D0D0D" transform="translate(201,207)"/>
<path d="M0 0 C2.97 0.33 5.94 0.66 9 1 C7.515 2.485 7.515 2.485 6 4 C3.3125 3.6875 3.3125 3.6875 1 3 C0.67 2.01 0.34 1.02 0 0 Z " fill="#D3D1D1" transform="translate(382,156)"/>
<path d="M0 0 C1.32 0.33 2.64 0.66 4 1 C3.67 1.66 3.34 2.32 3 3 C2.34 3 1.68 3 1 3 C0.67 3.99 0.34 4.98 0 6 C-0.66 5.67 -1.32 5.34 -2 5 C-1.34 3.35 -0.68 1.7 0 0 Z " fill="#837A7C" transform="translate(417,133)"/>
<path d="M0 0 C6.625 -0.125 6.625 -0.125 10 1 C9.67 1.66 9.34 2.32 9 3 C7.68 2.67 6.36 2.34 5 2 C4.67 2.66 4.34 3.32 4 4 C2.68 2.68 1.36 1.36 0 0 Z " fill="#0E0E0E" transform="translate(442,112)"/>
<path d="M0 0 C-7.42857143 3.28571429 -7.42857143 3.28571429 -11 4 C-11.33 3.34 -11.66 2.68 -12 2 C-10.37787941 1.47026689 -8.75218416 0.95146893 -7.125 0.4375 C-6.22007812 0.14746094 -5.31515625 -0.14257812 -4.3828125 -0.44140625 C-2 -1 -2 -1 0 0 Z " fill="#111111" transform="translate(245,97)"/>
<path d="M0 0 C-0.375 2.4375 -0.375 2.4375 -1 5 C-1.99 5.495 -1.99 5.495 -3 6 C-3 5.01 -3 4.02 -3 3 C-3.66 2.67 -4.32 2.34 -5 2 C-2 0 -2 0 0 0 Z " fill="#867E85" transform="translate(402,145)"/>
<path d="M0 0 C0.99 0.33 1.98 0.66 3 1 C2.67 2.65 2.34 4.3 2 6 C1.01 5.01 0.02 4.02 -1 3 C-1.99 3.495 -1.99 3.495 -3 4 C-2.67 3.01 -2.34 2.02 -2 1 C-1.34 0.67 -0.68 0.34 0 0 Z " fill="#C6C3C4" transform="translate(396,147)"/>
<path d="M0 0 C0.33 0 0.66 0 1 0 C2.25 6.625 2.25 6.625 0 10 C-0.33 9.67 -0.66 9.34 -1 9 C-0.91062197 7.47480724 -0.75462854 5.95318071 -0.5625 4.4375 C-0.46066406 3.61121094 -0.35882813 2.78492187 -0.25390625 1.93359375 C-0.17011719 1.29550781 -0.08632813 0.65742187 0 0 Z " fill="#0D0D0D" transform="translate(403,100)"/>
<path d="" fill="#000000" transform="translate(0,0)"/>
<path d="" fill="#FFFFFF" transform="translate(0,0)"/>
<path d="" fill="#FFFFFF" transform="translate(0,0)"/>
<path d="" fill="#FFFFFF" transform="translate(0,0)"/>
<path d="" fill="#FFFFFF" transform="translate(0,0)"/>
<path d="" fill="#FFFFFF" transform="translate(0,0)"/>
<path d="" fill="#FFFFFF" transform="translate(0,0)"/>
<path d="" fill="#FFFFFF" transform="translate(0,0)"/>
<path d="" fill="#FFFFFF" transform="translate(0,0)"/>
<path d="" fill="#FFFFFF" transform="translate(0,0)"/>
<path d="" fill="#FFFFFF" transform="translate(0,0)"/>
<path d="" fill="#FFFFFF" transform="translate(0,0)"/>
<path d="" fill="#FFFFFF" transform="translate(0,0)"/>
<path d="" fill="#FFFFFF" transform="translate(0,0)"/>
<path d="" fill="#FFFFFF" transform="translate(0,0)"/>
<path d="" fill="#FFFFFF" transform="translate(0,0)"/>
<path d="" fill="#FFFFFF" transform="translate(0,0)"/>
<path d="" fill="#FFFFFF" transform="translate(0,0)"/>
<path d="" fill="#FFFFFF" transform="translate(0,0)"/>
<path d="" fill="#FFFFFF" transform="translate(0,0)"/>
<path d="" fill="#FFFFFF" transform="translate(0,0)"/>
<path d="" fill="#FFFFFF" transform="translate(0,0)"/>
<path d="" fill="#FFFFFF" transform="translate(0,0)"/>
<path d="" fill="#FFFFFF" transform="translate(0,0)"/>
<path d="" fill="#FFFFFF" transform="translate(0,0)"/>
<path d="" fill="#FFFFFF" transform="translate(0,0)"/>
<path d="" fill="#FFFFFF" transform="translate(0,0)"/>
<path d="" fill="#FFFFFF" transform="translate(0,0)"/>
<path d="" fill="#FFFFFF" transform="translate(0,0)"/>
<path d="" fill="#FFFFFF" transform="translate(0,0)"/>
<path d="" fill="#FFFFFF" transform="translate(0,0)"/>
<path d="" fill="#FFFFFF" transform="translate(0,0)"/>
<path d="" fill="#FFFFFF" transform="translate(0,0)"/>
<path d="" fill="#FFFFFF" transform="translate(0,0)"/>
<path d="" fill="#FFFFFF" transform="translate(0,0)"/>
<path d="" fill="#FFFFFF" transform="translate(0,0)"/>
<path d="" fill="#FFFFFF" transform="translate(0,0)"/>
<path d="" fill="#FFFFFF" transform="translate(0,0)"/>
<path d="" fill="#FFFFFF" transform="translate(0,0)"/>
<path d="" fill="#FFFFFF" transform="translate(0,0)"/>
<path d="" fill="#FFFFFF" transform="translate(0,0)"/>
<path d="" fill="#FFFFFF" transform="translate(0,0)"/>
<path d="" fill="#FFFFFF" transform="translate(0,0)"/>
<path d="" fill="#FFFFFF" transform="translate(0,0)"/>
<path d="" fill="#FFFFFF" transform="translate(0,0)"/>
<path d="" fill="#FFFFFF" transform="translate(0,0)"/>
<path d="" fill="#FFFFFF" transform="translate(0,0)"/>
<path d="" fill="#FFFFFF" transform="translate(0,0)"/>
<path d="" fill="#FFFFFF" transform="translate(0,0)"/>
<path d="" fill="#FFFFFF" transform="translate(0,0)"/>
<path d="" fill="#FFFFFF" transform="translate(0,0)"/>
<path d="" fill="#FFFFFF" transform="translate(0,0)"/>
<path d="" fill="#FFFFFF" transform="translate(0,0)"/>
<path d="" fill="#000000" transform="translate(0,0)"/>
<path d="" fill="#FFFFFF" transform="translate(0,0)"/>
<path d="" fill="#FFFFFF" transform="translate(0,0)"/>
<path d="" fill="#FFFFFF" transform="translate(0,0)"/>
<path d="" fill="#FFFFFF" transform="translate(0,0)"/>
<path d="" fill="#FFFFFF" transform="translate(0,0)"/>
<path d="" fill="#FFFFFF" transform="translate(0,0)"/>
<path d="" fill="#FFFFFF" transform="translate(0,0)"/>
<path d="" fill="#FFFFFF" transform="translate(0,0)"/>
<path d="" fill="#FFFFFF" transform="translate(0,0)"/>
<path d="" fill="#FFFFFF" transform="translate(0,0)"/>
<path d="" fill="#FFFFFF" transform="translate(0,0)"/>
<path d="" fill="#FFFFFF" transform="translate(0,0)"/>
<path d="" fill="#FFFFFF" transform="translate(0,0)"/>
<path d="" fill="#FFFFFF" transform="translate(0,0)"/>
<path d="" fill="#FFFFFF" transform="translate(0,0)"/>
<path d="" fill="#FFFFFF" transform="translate(0,0)"/>
<path d="" fill="#FFFFFF" transform="translate(0,0)"/>
<path d="" fill="#FFFFFF" transform="translate(0,0)"/>
<path d="" fill="#FFFFFF" transform="translate(0,0)"/>
<path d="" fill="#FFFFFF" transform="translate(0,0)"/>
<path d="" fill="#FFFFFF" transform="translate(0,0)"/>
<path d="" fill="#FFFFFF" transform="translate(0,0)"/>
<path d="" fill="#FFFFFF" transform="translate(0,0)"/>
<path d="" fill="#FFFFFF" transform="translate(0,0)"/>
<path d="" fill="#FFFFFF" transform="translate(0,0)"/>
<path d="" fill="#FFFFFF" transform="translate(0,0)"/>
<path d="" fill="#FFFFFF" transform="translate(0,0)"/>
<path d="" fill="#FFFFFF" transform="translate(0,0)"/>
<path d="" fill="#FFFFFF" transform="translate(0,0)"/>
<path d="" fill="#FFFFFF" transform="translate(0,0)"/>
<path d="" fill="#FFFFFF" transform="translate(0,0)"/>
<path d="" fill="#FFFFFF" transform="translate(0,0)"/>
<path d="" fill="#FFFFFF" transform="translate(0,0)"/>
</svg>
